<?xml version="1.0" encoding="UTF-8"?>
<svg id="Warstwa_2" data-name="Warstwa 2" xmlns="http://www.w3.org/2000/svg" xmlns:xlink="http://www.w3.org/1999/xlink" viewBox="0 0 1440 765">
  <defs>
    <style>
      .cls-1, .cls-2 {
        opacity: .1;
      }

      .cls-1, .cls-3 {
        fill: #fff;
      }

      .cls-4 {
        fill: url(#New_Gradient_Swatch_4);
      }

      .cls-2 {
        fill: #6a6d89;
      }

      .cls-3 {
        opacity: .6;
      }
    </style>
    <linearGradient id="New_Gradient_Swatch_4" data-name="New Gradient Swatch 4" x1="117.07" y1="-136.1" x2="1319.76" y2="898.38" gradientUnits="userSpaceOnUse">
      <stop offset="0" stop-color="#15eded"/>
      <stop offset="1" stop-color="#029cf5"/>
    </linearGradient>
  </defs>
  <g id="Layer_1" data-name="Layer 1">
    <g>
      <rect class="cls-4" width="1440" height="765"/>
      <path class="cls-1" d="m1359.12,141.68c-72.92-.39-79.42,148.57-225.33,150.18-164.83,1.81-142.67,75.57-249.33,75.18h-320.96c-106.67.4-84.5-203.66-249.33-205.48-145.91-1.61-152.42,71.53-225.33,71.92-26.62.15-58.31.91-88.83-8.69v540.21h1440V180.04c-28.02-15.37-56.56-38.23-80.88-38.36Z"/>
      <path class="cls-3" d="m982.86,500.19l.93.36c.48-1.25.96-2.49,1.44-3.74l-.93-.36c-.48,1.25-.96,2.5-1.44,3.74Zm-2.86,7.49l.93.36c.48-1.25.95-2.5,1.43-3.75l-.93-.36c-.48,1.25-.96,2.5-1.43,3.75Zm-5.72,14.97l.93.36c.48-1.25.96-2.49,1.43-3.75l-.93-.35c-.48,1.25-.96,2.5-1.43,3.74Zm18.89-48.56h0s0,0,0,0Zm59.45-99.07l.7.72c.95-.93,1.92-1.84,2.89-2.74l-.68-.74c-.98.9-1.95,1.83-2.91,2.76Zm-60.96,102.78l.93.38c.5-1.24,1-2.47,1.51-3.71l-.92-.38c-.51,1.23-1.01,2.47-1.51,3.71Zm-1.5,3.72h0s0,0,0,0h0Zm-1.48,3.72l.93.37c.49-1.24.98-2.48,1.48-3.72l-.93-.37c-.5,1.24-.99,2.48-1.48,3.72Zm-2.93,7.47l.93.36c.48-1.24.97-2.49,1.46-3.73l-.93-.37c-.49,1.24-.98,2.49-1.46,3.74Zm-29.74,74.38l.91.42c.56-1.21,1.11-2.43,1.66-3.65l-.91-.41c-.55,1.23-1.1,2.44-1.65,3.64Zm15.38-36.96l.93.36c.48-1.24.96-2.49,1.45-3.74l-.93-.36c-.48,1.25-.96,2.49-1.45,3.74Zm-18.81,44.19l.9.44c.58-1.19,1.16-2.4,1.74-3.62l-.9-.43c-.58,1.21-1.15,2.42-1.74,3.6Zm8.29-18.21c-.53,1.23-1.06,2.46-1.59,3.67l.92.4c.53-1.22,1.06-2.44,1.59-3.68l-.92-.4h0Zm7.59-18.53l.93.37c.49-1.24.98-2.48,1.47-3.73l-.93-.36c-.49,1.25-.98,2.49-1.47,3.73Zm-2.98,7.44l.93.37c.5-1.23,1-2.47,1.5-3.72l-.93-.37c-.5,1.24-1,2.48-1.5,3.71Zm-16.52,36.43l.89.47c.62-1.17,1.23-2.36,1.84-3.57l-.89-.45c-.61,1.2-1.22,2.38-1.83,3.55Zm13.47-29.03l.92.39c.52-1.23,1.03-2.46,1.54-3.7l-.92-.38c-.51,1.24-1.02,2.47-1.54,3.7Zm64.94-146.3l.83.55c.73-1.12,1.47-2.22,2.22-3.32l-.83-.56c-.75,1.1-1.5,2.21-2.23,3.33Zm4.52-6.63l.81.58c.77-1.09,1.55-2.17,2.34-3.24l-.8-.6c-.79,1.07-1.58,2.16-2.35,3.25Zm-8.82,13.41l.85.52c.7-1.14,1.4-2.27,2.11-3.39l-.84-.54c-.71,1.13-1.42,2.26-2.12,3.4Zm18.62-26.11l.77.64c.86-1.02,1.72-2.03,2.6-3.02l-.75-.66c-.88,1-1.76,2.01-2.62,3.04Zm5.31-6.02l.73.68c.9-.98,1.82-1.94,2.75-2.89l-.72-.7c-.93.96-1.85,1.93-2.76,2.91Zm-7.86,9.12c-.83,1.04-1.66,2.09-2.48,3.16l.79.61c.81-1.06,1.64-2.11,2.47-3.14l-.78-.63h0Zm-18.14,26.45c-.68,1.15-1.35,2.3-2.02,3.47l.87.5c.67-1.16,1.34-2.31,2.01-3.45l-.86-.51h0Zm-7.81,14.02c-.62,1.18-1.24,2.37-1.84,3.56l.89.46c.61-1.19,1.22-2.38,1.84-3.55l-.89-.47h0Zm-13.79,28.94h0,0Zm-1.59,3.68l.92.39c.53-1.22,1.06-2.45,1.59-3.67l-.92-.4c-.54,1.22-1.07,2.45-1.59,3.68Zm3.21-7.34l.91.41c.54-1.22,1.09-2.43,1.64-3.64l-.91-.42c-.55,1.21-1.1,2.43-1.64,3.65Zm6.75-14.53l.9.44c.58-1.2,1.17-2.4,1.77-3.59l-.9-.45c-.59,1.19-1.18,2.39-1.77,3.6Zm-1.74,3.62c-.57,1.21-1.14,2.42-1.7,3.63l.91.42c.56-1.21,1.13-2.42,1.7-3.62l-.9-.43h0Zm-11.34,25.66l.92.38c.51-1.24,1.03-2.47,1.55-3.7l-.92-.39c-.52,1.23-1.04,2.47-1.55,3.71Zm20.39-43.55l.88.47c.64-1.17,1.28-2.34,1.92-3.5l-.87-.49c-.65,1.17-1.29,2.34-1.93,3.52Zm-36.52,84.61c-.48,1.25-.95,2.5-1.43,3.74l.93.36c.48-1.25.95-2.49,1.43-3.74l-.93-.36h0Zm-166.13,122.52h4v-1h-4v1Zm-8,0h4v-1h-4v1Zm-24,0h4v-1h-4v1Zm8,0h4v-1h-4v1Zm8,0h4v-1h-4v1Zm24,0h4v-1h-4v1Zm16,0h4v-1h-4v1Zm-8,0h4v-1h-4v1Zm16,0h4v-1h-4v1Zm-72,0h4v-1h-4v1Zm-48,0h4v-1h-4v1Zm16,0h4v-1h-4v1Zm-8,0h4v-1h-4v1Zm16,0h4v-1h-4v1Zm16,0h4v-1h-4v1Zm-8,0h4v-1h-4v1Zm96,0h4v-1h-4v1Zm94.64-48.97c-.65,1.18-1.3,2.34-1.95,3.49l.87.5c.66-1.15,1.31-2.32,1.96-3.5l-.87-.48h0Zm-32.76,39.35l.55.84c1.12-.72,2.21-1.49,3.29-2.29l-.6-.8c-1.06.79-2.15,1.54-3.24,2.25Zm-205.88,9.62h4v-1h-4v1Zm212.23-14.33l.64.77c1.02-.85,2.02-1.74,3-2.66l-.68-.73c-.98.91-1.96,1.79-2.96,2.63Zm22.44-27.7h0s0,0,0,0h0Zm-4.27,6.74c-.75,1.12-1.5,2.21-2.27,3.28l.81.58c.77-1.08,1.53-2.18,2.28-3.3l-.83-.56h0Zm2.18-3.34l.85.54c.71-1.12,1.41-2.26,2.11-3.42l-.86-.51c-.69,1.15-1.39,2.28-2.1,3.4Zm-14.55,18.9l.72.7c.92-.95,1.83-1.93,2.73-2.94l-.75-.67c-.89,1-1.79,1.97-2.7,2.91Zm-58.03,19.74h4v-1h-4v1Zm8,0h4v-1h-4v1Zm-16,0h4v-1h-4v1Zm31.91-1.44l.13.99c1.34-.17,2.66-.4,3.97-.66l-.2-.98c-1.28.26-2.58.48-3.89.65Zm7.72-1.6l.28.96c1.29-.37,2.56-.79,3.81-1.26l-.35-.94c-1.22.46-2.47.87-3.73,1.24Zm7.36-2.76l.42.91c1.21-.56,2.4-1.17,3.58-1.82l-.49-.88c-1.15.64-2.32,1.24-3.51,1.79Zm-22.12,4.8c-.28,0-.56,0-.84,0h-.03v1h.02c.28,0,.57,0,.85,0,1.06,0,2.11-.03,3.15-.09l-.05-1c-1.02.06-2.05.08-3.1.08Zm48.9-27.81c-.81,1.07-1.63,2.11-2.47,3.12l.77.64c.84-1.03,1.67-2.08,2.49-3.15l-.79-.61h0Zm370.45-444.04l.88.48c.65-1.18,1.29-2.35,1.94-3.5l-.87-.49c-.65,1.16-1.3,2.33-1.94,3.51Zm-1.91,3.53c-.63,1.17-1.25,2.35-1.87,3.55l.89.46c.62-1.19,1.25-2.37,1.87-3.54l-.88-.47h0Zm5.84-10.53l.87.5c.68-1.17,1.35-2.32,2.03-3.45l-.86-.51c-.68,1.13-1.36,2.29-2.04,3.46Zm-11.38,21.21l.89.45c.61-1.2,1.21-2.39,1.82-3.57l-.89-.46c-.61,1.18-1.21,2.37-1.82,3.57Zm-3.59,7.17l.9.45c.6-1.2,1.19-2.4,1.79-3.58l-.89-.45c-.6,1.19-1.19,2.39-1.79,3.59Zm28.28-48.46l.79.62c.83-1.06,1.67-2.09,2.52-3.08l-.76-.65c-.86,1-1.7,2.04-2.55,3.11Zm-11.27,16.62h0,0Zm-45.94,88.97l.87.48c.65-1.17,1.29-2.34,1.93-3.51l-.88-.48c-.64,1.17-1.28,2.34-1.92,3.51Zm52.44-99.12l.82.57c.77-1.11,1.54-2.19,2.31-3.25l-.81-.59c-.78,1.06-1.56,2.16-2.33,3.27Zm-44.91,85.03l.89.46c.62-1.19,1.23-2.38,1.84-3.56l-.89-.46c-.61,1.19-1.22,2.37-1.83,3.56Zm17.85-35.86l.9.44c.59-1.2,1.18-2.4,1.77-3.59l-.9-.44c-.59,1.19-1.18,2.39-1.77,3.6Zm-14.2,28.73l.89.45c.6-1.2,1.21-2.39,1.8-3.58l-.89-.45c-.6,1.19-1.2,2.38-1.8,3.58Zm-5.5,10.66c-.62,1.18-1.24,2.35-1.87,3.52l.88.47c.63-1.18,1.25-2.35,1.87-3.53l-.88-.47h0Zm9.09-17.82l.89.44c.6-1.2,1.19-2.4,1.78-3.59l-.9-.45c-.59,1.19-1.18,2.39-1.78,3.59Zm7.08-14.38l.9.44c.59-1.21,1.18-2.4,1.76-3.6l-.9-.44c-.59,1.19-1.17,2.4-1.76,3.6Zm-3.53,7.19l.9.44c.59-1.2,1.18-2.4,1.76-3.6l-.9-.44c-.58,1.2-1.17,2.39-1.76,3.6Zm29.71-56.85l.85.53c.71-1.14,1.43-2.26,2.16-3.37l-.84-.55c-.72,1.11-1.45,2.24-2.17,3.38Zm89.41-37.83l.25.97c1.29-.33,2.57-.7,3.87-1.11l-.3-.95c-1.28.4-2.55.76-3.82,1.09Zm-7.78,1.62l.16.99c1.31-.21,2.63-.46,3.95-.73l-.2-.98c-1.31.27-2.61.51-3.91.72Zm15.35-4l.35.94c1.24-.46,2.49-.96,3.73-1.5l-.4-.92c-1.23.53-2.46,1.03-3.68,1.48Zm17.49-9.24c-1.1.77-2.2,1.5-3.3,2.2l.53.85c1.11-.7,2.23-1.45,3.34-2.23l-.57-.82h0Zm-10.22,6.09l.45.9c1.18-.59,2.37-1.21,3.55-1.88l-.49-.87c-1.17.66-2.34,1.28-3.51,1.86Zm13.41-8.45l.61.79c1.04-.8,2.08-1.65,3.12-2.53l-.65-.76c-1.03.87-2.06,1.71-3.09,2.5Zm-103.28,32.5l.73.68c.92-.99,1.85-1.93,2.79-2.83l-.69-.72c-.95.92-1.89,1.88-2.82,2.87Zm63.3-16.35c-1.33.16-2.65.29-3.96.4l.08,1c1.33-.11,2.66-.24,4-.4l-.12-1h0Zm-47.44,4.12c-1.2.58-2.38,1.22-3.54,1.92l.52.86c1.14-.69,2.29-1.32,3.45-1.88l-.43-.9h0Zm-10.05,6.66l.65.76c1.02-.87,2.06-1.69,3.1-2.45l-.59-.81c-1.07.78-2.12,1.61-3.16,2.5Zm13.77-8.21l.33.94c1.23-.44,2.48-.81,3.75-1.1l-.23-.98c-1.31.3-2.6.68-3.86,1.13Zm31.81-1.77l.02,1c1.33-.03,2.67-.08,4.01-.14l-.05-1c-1.33.06-2.66.11-3.98.14Zm-7.98.02l-.02,1c1.26.02,2.54.03,3.82.03h.19v-1h-.19c-1.28,0-2.54,0-3.8-.03Zm-16.02-.05l.11,1c1.23-.14,2.49-.21,3.76-.21h.14v-1s-.09,0-.14,0c-1.31,0-2.6.07-3.87.21Zm8,.88c1.32.03,2.65.07,4,.1l.02-1c-1.34-.03-2.68-.07-4-.1l-.02,1Zm-163.65,205.53l.56.83c1.11-.75,2.21-1.5,3.3-2.28l-.58-.82c-1.08.77-2.17,1.53-3.28,2.26Zm-51.56,19.79l.14.99c1.33-.19,2.65-.4,3.96-.63l-.17-.99c-1.3.23-2.61.44-3.93.62Zm-7.92.89l.08,1c1.34-.11,2.67-.24,3.99-.39l-.11-.99c-1.31.15-2.63.28-3.96.39Zm121.37-92.82l.87.5c.67-1.16,1.33-2.32,1.99-3.49l-.87-.5c-.66,1.16-1.32,2.32-1.98,3.48Zm-137.32,94.01l.12.99c1.31-.16,2.63-.29,3.96-.41l-.09-1c-1.34.12-2.67.26-3.99.42Zm10.34-.84c-.79.04-1.58.08-2.36.12l.06,1c.78-.04,1.56-.08,2.34-.12.55-.02,1.1-.05,1.65-.08l-.06-1c-.54.03-1.09.06-1.64.08Zm36.69-6.84l.33.95c1.27-.44,2.52-.9,3.77-1.38l-.36-.93c-1.23.47-2.48.93-3.74,1.36Zm-7.59,2.36l.27.96c1.3-.35,2.58-.73,3.85-1.13l-.3-.96c-1.26.39-2.53.76-3.82,1.12Zm-7.73,1.86l.2.98c1.32-.27,2.62-.57,3.91-.88l-.23-.97c-1.28.31-2.57.6-3.88.87Zm-90.41,27.36l.61.79c1.05-.81,2.12-1.6,3.2-2.38l-.58-.81c-1.09.78-2.16,1.58-3.22,2.4Zm13.31-8.94l.5.87c1.15-.66,2.31-1.31,3.48-1.94l-.47-.88c-1.18.63-2.36,1.29-3.51,1.96Zm-6.8,4.25l.56.83c1.1-.74,2.21-1.46,3.33-2.16l-.53-.85c-1.13.71-2.25,1.43-3.36,2.18Zm106.65-29.74l.39.92c1.23-.52,2.46-1.06,3.67-1.62l-.42-.91c-1.2.55-2.41,1.09-3.64,1.61Zm-66.31,12.52c-1.31.28-2.62.59-3.9.92l.24.97c1.28-.32,2.57-.63,3.87-.91l-.21-.98h0Zm-11.6,3.15l.31.95c1.25-.41,2.52-.8,3.8-1.17l-.28-.96c-1.29.37-2.57.77-3.83,1.18Zm-14.85,6.04l.44.9c1.19-.58,2.39-1.14,3.6-1.69l-.41-.92c-1.23.55-2.44,1.12-3.63,1.7Zm7.32-3.28l.38.93c1.22-.5,2.46-.98,3.71-1.43l-.34-.94c-1.26.46-2.51.94-3.74,1.45Zm27.02-7.36c-1.33.2-2.65.42-3.95.66l.18.98c1.29-.24,2.6-.46,3.92-.66l-.15-.99h0Zm124.08-67.54l.81.58c.78-1.09,1.54-2.18,2.31-3.28l-.82-.57c-.76,1.1-1.53,2.19-2.3,3.27Zm-4.75,6.43l.79.61c.81-1.06,1.61-2.13,2.41-3.21l-.8-.59c-.79,1.07-1.59,2.14-2.4,3.2Zm7.04-9.7h0s0,0,0,0h0Zm6.62-10l.84.54c.72-1.13,1.43-2.27,2.14-3.41l-.85-.53c-.7,1.14-1.42,2.27-2.13,3.4Zm4.22-6.83l.86.52c.69-1.15,1.38-2.3,2.06-3.46l-.86-.51c-.68,1.15-1.36,2.3-2.05,3.44Zm-22.85,32.79l.77.64c.85-1.03,1.69-2.07,2.52-3.12l-.78-.62c-.83,1.04-1.66,2.08-2.51,3.11Zm14.25-19.26l.83.56c.74-1.11,1.48-2.22,2.21-3.34l-.84-.55c-.73,1.11-1.46,2.23-2.21,3.33Zm-189.57,102.56l.66.76c1-.87,2.02-1.73,3.04-2.57l-.63-.78c-1.03.85-2.06,1.71-3.07,2.59Zm146.82-55.48l.6.8c1.06-.8,2.11-1.62,3.15-2.45l-.62-.78c-1.03.83-2.08,1.64-3.13,2.44Zm-20.23,12.64l.45.9c1.2-.6,2.38-1.22,3.55-1.85l-.48-.88c-1.16.63-2.34,1.25-3.53,1.84Zm7-3.79l.5.87c1.16-.68,2.3-1.37,3.43-2.08l-.53-.85c-1.12.7-2.26,1.39-3.41,2.06Zm36.53-30.59l.75.66c.89-1,1.77-2.01,2.64-3.03l-.76-.65c-.87,1.01-1.74,2.02-2.62,3.01Zm-5.44,5.86l.72.7c.93-.96,1.86-1.94,2.77-2.92l-.73-.68c-.91.98-1.83,1.95-2.76,2.91Zm-5.7,5.61l.68.73c.98-.92,1.95-1.84,2.9-2.79l-.7-.71c-.95.93-1.91,1.86-2.88,2.77Zm-5.95,5.31l.65.76c1.02-.86,2.03-1.74,3.03-2.63l-.66-.75c-.99.88-1.99,1.76-3.01,2.62Zm-495.11,324.81h4v-1h-4v1ZM208.93,281.36c.82,1.06,1.64,2.11,2.48,3.16l.78-.62c-.83-1.04-1.65-2.09-2.46-3.14l-.79.61Zm-1.62-3.8h0s0,0,0,0h0Zm-3.16-2.63c.78,1.08,1.57,2.16,2.36,3.23l.8-.6c-.79-1.06-1.57-2.14-2.35-3.21l-.81.59Zm26.95,29.49l-.68.73c.98.91,1.97,1.81,2.98,2.69l.66-.75h0c-1-.88-1.98-1.77-2.96-2.68Zm-11.92-10.72c.9,1,1.8,1.98,2.71,2.96l.73-.68c-.91-.97-1.81-1.95-2.7-2.94l-.74.67Zm-5.24-6.08c.85,1.03,1.72,2.05,2.59,3.06l.76-.65c-.87-1.01-1.73-2.02-2.58-3.05l-.77.64Zm10.73,11.93c.94.96,1.89,1.9,2.84,2.84l.7-.72c-.95-.93-1.89-1.87-2.83-2.82l-.71.7Zm-29.5-37.88c.72,1.13,1.45,2.25,2.18,3.37l.83-.55c-.73-1.11-1.46-2.23-2.17-3.35l-.84.54Zm4.4,6.7c.75,1.11,1.5,2.2,2.26,3.3l.82-.57c-.76-1.09-1.51-2.19-2.26-3.29l-.83.56Zm-27.96-48.68c.6,1.19,1.21,2.38,1.82,3.57l.89-.46c-.61-1.19-1.22-2.38-1.82-3.57l-.89.46Zm-3.6-7.17c.59,1.19,1.19,2.39,1.79,3.59l.89-.45c-.6-1.2-1.2-2.39-1.79-3.58l-.89.45Zm22.92,42.33c.69,1.14,1.39,2.28,2.1,3.42l.85-.53c-.71-1.13-1.4-2.27-2.1-3.41l-.85.52Zm-15.66-28.04c.62,1.18,1.24,2.37,1.86,3.55l.88-.47c-.62-1.18-1.24-2.36-1.86-3.55l-.89.46Zm11.56,21.12c.67,1.16,1.35,2.32,2.03,3.47l.86-.51c-.68-1.15-1.36-2.3-2.03-3.46l-.87.5Zm-7.81-14.03c.63,1.18,1.27,2.35,1.91,3.53l.88-.48c-.64-1.17-1.28-2.34-1.91-3.52l-.88.47Zm3.84,7.04c.65,1.17,1.3,2.34,1.96,3.5l.87-.49c-.66-1.16-1.31-2.33-1.96-3.49l-.87.49Zm146.54,100.32h0,0s0,0,0,0Zm-12.02-.34c1.34.09,2.66.2,3.97.32l.09-1c-1.32-.13-2.65-.24-4-.32l-.07,1Zm-15.96-1.31c1.31.18,2.64.34,3.98.48l.1-1c-1.33-.14-2.64-.3-3.95-.48l-.13.99Zm-15.72-3.15c1.29.34,2.58.67,3.89.97l.23-.98c-1.3-.3-2.59-.62-3.86-.96l-.26.97Zm-49.26-26.01c1.02.85,2.06,1.7,3.1,2.52l.62-.79c-1.04-.82-2.07-1.66-3.08-2.51l-.64.77Zm72.95,30.01c1.32.1,2.65.18,4,.25l.05-1c-1.34-.07-2.66-.15-3.97-.25l-.08,1Zm23.77,2.47c1.31.25,2.61.52,3.89.82l.22-.98c-1.3-.3-2.6-.57-3.93-.82l-.19.98Zm-7.86-1.25c1.33.17,2.64.36,3.94.56l.16-.99c-1.31-.21-2.63-.4-3.97-.57l-.13.99Zm-160.85-136.35c.59,1.19,1.18,2.39,1.77,3.59l.89-.45h0c-.6-1.2-1.19-2.4-1.77-3.59l-.9.44Zm129.06,132.96c1.3.26,2.62.5,3.94.72l.17-.99c-1.32-.22-2.62-.46-3.91-.72l-.2.98Zm-50.79-22.87c1.07.8,2.15,1.58,3.24,2.35l.57-.82h0c-1.08-.76-2.16-1.54-3.22-2.34l-.6.8Zm35.3,18.73c1.26.43,2.54.83,3.82,1.22l.29-.96c-1.27-.39-2.54-.79-3.79-1.21l-.32.95Zm-28.74-14.12c1.12.74,2.25,1.46,3.39,2.16l.52-.85c-1.13-.7-2.25-1.41-3.36-2.14l-.55.84Zm-9.11-7.83h0s0,0,0,0t0,0Zm30.35,19.13c1.23.51,2.48,1,3.73,1.47l.35-.94h0c-1.25-.47-2.48-.96-3.7-1.46l-.38.93Zm-14.39-7.08c1.16.67,2.33,1.31,3.51,1.94l.47-.88c-1.17-.62-2.33-1.27-3.48-1.93l-.5.87Zm7.08,3.77c1.2.59,2.4,1.16,3.63,1.71l.41-.91c-1.21-.55-2.41-1.11-3.6-1.7l-.44.9Zm-108.45-144.72l-.9.45c.59,1.19,1.18,2.39,1.78,3.59l.9-.44h0c-.59-1.21-1.18-2.4-1.77-3.6ZM54.36,112.13c1.33.2,2.66.38,3.98.52l.11-1c-1.31-.15-2.62-.32-3.94-.51l-.15.99Zm109.23,89.17h0s0,0,0,0ZM31.37,105.17c1.22.59,2.45,1.14,3.67,1.65l.38-.92c-1.21-.5-2.41-1.05-3.62-1.63l-.43.9Zm7.41,3.1c1.28.46,2.55.87,3.82,1.25l.29-.96c-1.25-.38-2.51-.79-3.77-1.24l-.34.94Zm23.63,3.75l-.07,1c1.34.1,2.68.18,4.01.23l.04-1h0c-1.32-.06-2.64-.13-3.98-.23Zm26.4.08c-.82.02-1.64.04-2.47.06l.02,1c.83-.02,1.65-.04,2.46-.06.25,0,.49,0,.74,0s.51,0,.77,0l.02-1c-.26,0-.53,0-.79,0s-.51,0-.76,0Zm-15.19.29c-1.08,0-2.16,0-3.25-.03l-.02,1c1.1.02,2.19.03,3.27.03h.74v-1c-.25,0-.5,0-.74,0Zm8.73-.13c-1.32.03-2.65.06-3.99.09l.02,1c1.34-.02,2.68-.05,4-.09l-.03-1h0ZM.44,80.04c.87,1.05,1.74,2.06,2.62,3.04l.75-.67c-.87-.98-1.73-1.98-2.59-3.02l-.77.64Zm1438.9,7.48h0,0Zm0,0c-.96.95-1.91,1.87-2.87,2.75l.68.74c.95-.88,1.91-1.79,2.86-2.74v-.08l-.67-.67ZM94.41,112.43l-.14.99c1.3.18,2.58.44,3.84.77l.25-.97h0c-1.3-.34-2.61-.61-3.95-.79Zm-70.09-11.12c1.16.71,2.32,1.38,3.47,2.02l.48-.88c-1.14-.63-2.29-1.29-3.43-1.99l-.52.85Zm-18.56-15.27c.94.99,1.88,1.94,2.82,2.86l.7-.72c-.93-.91-1.86-1.85-2.79-2.83l-.72.69Zm11.93,10.73c1.09.82,2.17,1.61,3.26,2.35l.56-.83c-1.07-.73-2.15-1.51-3.22-2.32l-.6.8Zm-6.18-5.12c1.01.91,2.02,1.79,3.04,2.63l.64-.77c-1-.83-2-1.7-3-2.6l-.67.74Zm35.2,17.96l-.24.97c1.31.32,2.62.61,3.92.87l.19-.98h0c-1.29-.25-2.58-.54-3.88-.86Zm99.91,59.86c.61,1.17,1.22,2.36,1.84,3.56l.89-.46c-.61-1.2-1.23-2.39-1.84-3.56l-.89.46Zm3.65,7.13c.6,1.18,1.2,2.38,1.8,3.58l.9-.45c-.6-1.2-1.2-2.4-1.8-3.58l-.89.45Zm-7.41-14.2c.63,1.16,1.26,2.34,1.89,3.53l.88-.47c-.63-1.19-1.27-2.37-1.9-3.53l-.88.48Zm-41.04-47c1.21.47,2.4,1.01,3.58,1.61l.46-.89c-1.21-.62-2.43-1.17-3.67-1.65l-.36.93Zm59.1,82.75c.58,1.2,1.17,2.39,1.76,3.6l.9-.44c-.59-1.2-1.18-2.4-1.76-3.6l-.9.44Zm180,146.56c1.29.34,2.56.69,3.83,1.07l.29-.96c-1.27-.38-2.56-.74-3.86-1.08l-.25.97Zm-183.52-153.75c.59,1.19,1.17,2.39,1.76,3.6l.9-.44c-.59-1.2-1.18-2.4-1.76-3.6l-.9.44Zm-18.43-35.54c.66,1.15,1.31,2.3,1.97,3.48l.87-.49c-.66-1.18-1.32-2.34-1.98-3.49l-.87.5Zm-26.33-34.99h0s0,0,0,0h0Zm2.46,3.3c.97.85,1.94,1.75,2.9,2.7l.7-.71c-.97-.96-1.95-1.87-2.94-2.74l-.66.75Zm-6.29-4.76c1.09.69,2.17,1.45,3.23,2.25l.6-.8c-1.08-.82-2.18-1.59-3.3-2.3l-.54.84Zm17.04,16.42c.8,1.04,1.6,2.1,2.39,3.19l.81-.59h0c-.8-1.1-1.6-2.18-2.41-3.22l-.79.61Zm4.68,6.46c.74,1.08,1.48,2.19,2.21,3.33l.84-.54c-.74-1.14-1.48-2.25-2.22-3.35l-.83.57Zm4.35,6.7c.69,1.12,1.39,2.26,2.07,3.42l.86-.51c-.69-1.16-1.39-2.31-2.08-3.43l-.85.53Zm-14.13-19.26c.88.96,1.75,1.96,2.61,3l.77-.64c-.87-1.05-1.75-2.06-2.64-3.03l-.74.67Zm467.69,504.66h4v-1h-4v1Zm-54.54-8.26c1.14.71,2.3,1.38,3.48,2.01l.47-.88c-1.16-.62-2.3-1.28-3.42-1.98l-.53.85Zm7.09,3.77c1.23.54,2.47,1.03,3.73,1.48l.33-.95c-1.24-.44-2.46-.92-3.66-1.46l-.4.92Zm-12.98-9.25l-.63.78c1.04.86,2.11,1.67,3.19,2.45l.59-.81h0c-1.06-.77-2.11-1.57-3.14-2.42Zm-6.57-4.64c.95.96,1.92,1.89,2.9,2.79l.67-.74c-.97-.88-1.92-1.8-2.86-2.75l-.71.7Zm27.11,16.56c1.28.34,2.59.64,3.91.89l.19-.98c-1.3-.24-2.58-.54-3.84-.87l-.26.97Zm15.89,1.82h4v-1h-4v1Zm-48.4-24.33c.87,1.04,1.75,2.05,2.64,3.03l.74-.67c-.88-.97-1.75-1.97-2.61-3l-.77.64Zm56.4,24.33h4v-1h-4v1Zm-16.01-.34c1.31.14,2.65.25,4,.3l.04-1c-1.33-.05-2.64-.15-3.93-.29l-.11.99Zm-65.01-65.28c.57,1.22,1.13,2.43,1.71,3.63l.9-.43c-.57-1.2-1.14-2.4-1.7-3.62l-.91.42Zm3.46,7.24c.6,1.21,1.2,2.41,1.8,3.59l.89-.45h0c-.6-1.18-1.2-2.37-1.79-3.58l-.9.44Zm-9.93-21.93c.52,1.24,1.05,2.47,1.57,3.69l.92-.4c-.52-1.22-1.05-2.45-1.57-3.68l-.92.39Zm13.58,29.08c.63,1.19,1.27,2.37,1.91,3.53l.88-.49c-.64-1.16-1.28-2.33-1.91-3.51l-.88.47Zm8.07,13.89c.73,1.14,1.47,2.26,2.21,3.35l.83-.56h0c-.74-1.09-1.47-2.2-2.2-3.33l-.84.54Zm-4.17-6.86c.67,1.17,1.36,2.32,2.05,3.45l.85-.52h0c-.68-1.13-1.36-2.27-2.04-3.43l-.87.5Zm8.69,13.51c.79,1.1,1.59,2.17,2.41,3.22l.79-.61c-.8-1.04-1.6-2.11-2.39-3.19l-.81.59Zm-22.99-42.24c.54,1.23,1.08,2.45,1.63,3.67l.91-.41c-.55-1.21-1.09-2.43-1.63-3.66l-.92.4Zm172.32,72.93h4v-1h-4v1Zm-8,0h4v-1h-4v1Zm-72,0h4v-1h-4v1Zm112,0h4v-1h-4v1Zm-16,0h4v-1h-4v1Zm-32,0h4v-1h-4v1Zm-295.89-286.96c1.26.43,2.51.87,3.75,1.33l.35-.94c-1.25-.47-2.5-.91-3.78-1.34l-.32.95Zm319.89,286.96h4v-1h-4v1Zm-72,0h4v-1h-4v1Zm104,0h4v-1h-4v1Zm-64,0h4v-1h-4v1Zm-32,0h4v-1h-4v1Zm24,0h4v-1h-4v1Zm-16,0h4v-1h-4v1Zm8,0h4v-1h-4v1Zm64,0h4v-1h-4v1Zm-273.39-239.58c.8,1.05,1.6,2.12,2.39,3.2l.81-.59c-.79-1.08-1.59-2.15-2.4-3.21l-.79.61Zm4.72,6.44c.76,1.09,1.52,2.18,2.27,3.29l.83-.56c-.75-1.11-1.51-2.21-2.28-3.3l-.82.58Zm-9.69-12.69c.85,1.02,1.69,2.05,2.52,3.1l.78-.62c-.83-1.05-1.68-2.09-2.53-3.11l-.77.64Zm14.17,19.3c.72,1.11,1.44,2.24,2.16,3.37l.85-.53c-.71-1.13-1.43-2.26-2.16-3.38l-.84.55Zm4.25,6.77c.69,1.14,1.38,2.28,2.05,3.43l.86-.51c-.68-1.16-1.37-2.3-2.06-3.44l-.86.52Zm-23.67-32.08c.9.98,1.78,1.97,2.66,2.98l.75-.66c-.88-1.01-1.77-2.01-2.67-2.99l-.74.67Zm32.47,45.49l-.88.47c.63,1.17,1.25,2.35,1.87,3.54l.89-.46h0c-.62-1.19-1.25-2.37-1.88-3.54Zm2.82,7.57c.6,1.19,1.2,2.38,1.79,3.57l.9-.44c-.59-1.2-1.19-2.39-1.8-3.58l-.89.45Zm-7.57-14.09c.66,1.15,1.31,2.32,1.96,3.49l.87-.48h0c-.65-1.18-1.3-2.34-1.96-3.5l-.87.5Zm-65.34-68c1.19.59,2.36,1.21,3.52,1.84l.48-.88c-1.17-.64-2.36-1.26-3.56-1.86l-.45.89Zm32.08,23.29c.94.93,1.88,1.88,2.8,2.84l.72-.7c-.93-.97-1.87-1.92-2.82-2.85l-.7.71Zm-39.31-26.6c1.23.51,2.44,1.04,3.64,1.59l.42-.91c-1.21-.56-2.44-1.09-3.68-1.61l-.38.92Zm14.21,7.11c1.14.68,2.27,1.37,3.39,2.08l.54-.85c-1.13-.72-2.27-1.42-3.42-2.09l-.51.86Zm6.71,4.27c1.09.75,2.18,1.51,3.25,2.3l.59-.81c-1.08-.79-2.17-1.56-3.28-2.31l-.56.83Zm13.2,9.02l-.66.75c1,.88,1.98,1.77,2.96,2.68l.68-.73h0c-.98-.92-1.97-1.82-2.98-2.7Zm-6.78-4.32c1.04.81,2.07,1.64,3.09,2.49l.64-.77c-1.03-.85-2.06-1.69-3.11-2.51l-.62.79Zm78.28,128.08c.48,1.24.96,2.48,1.44,3.72l.93-.36c-.48-1.24-.96-2.48-1.44-3.73l-.93.36Zm5.74,14.95c.48,1.25.95,2.5,1.43,3.74l.93-.36c-.48-1.25-.95-2.5-1.43-3.74l-.93.36Zm2.86,7.49c.48,1.25.95,2.5,1.43,3.75l.94-.36c-.48-1.25-.95-2.49-1.43-3.74l-.93.36Zm-5.72-14.97c.48,1.25.96,2.5,1.43,3.74l.93-.36c-.48-1.25-.95-2.49-1.43-3.74l-.93.36Zm14.4,37.4c.49,1.25.99,2.49,1.49,3.72l.93-.37c-.5-1.24-.99-2.48-1.48-3.72l-.93.37Zm2.99,7.44c.51,1.24,1.01,2.48,1.52,3.71l.92-.38c-.51-1.23-1.01-2.46-1.52-3.71l-.93.38Zm-5.92-14.91c.49,1.25.97,2.5,1.46,3.73l.93-.37c-.49-1.24-.97-2.48-1.46-3.73l-.93.36Zm-2.89-7.48c.48,1.25.96,2.5,1.44,3.74l.93-.36c-.48-1.24-.96-2.49-1.44-3.74l-.93.36Zm-26.69-66.98c.54,1.22,1.08,2.44,1.61,3.66l.92-.4c-.53-1.23-1.07-2.45-1.61-3.67l-.91.41Zm12.31,29.6c.49,1.24.98,2.48,1.46,3.73l.93-.37c-.49-1.24-.97-2.49-1.46-3.73l-.93.37Zm-15.61-36.9c.56,1.21,1.11,2.42,1.66,3.64l.91-.41c-.55-1.22-1.11-2.43-1.67-3.65l-.91.42Zm-3.42-7.24c.58,1.2,1.15,2.4,1.72,3.61l.9-.43c-.57-1.21-1.15-2.42-1.73-3.62l-.9.43Zm5.99,10.47h0s0,0,0,0h0Zm10.06,26.23c.5,1.24,1,2.48,1.49,3.72l.93-.37c-.5-1.24-.99-2.49-1.5-3.73l-.93.38Zm-5.22-15.21l-.92.39c.52,1.23,1.05,2.46,1.56,3.69l.92-.39h0c-.52-1.24-1.04-2.46-1.56-3.69Zm2.19,7.77c.51,1.24,1.02,2.48,1.53,3.72l.93-.38c-.51-1.24-1.02-2.48-1.53-3.72l-.92.38Z"/>
      <path class="cls-1" d="m151,359.43c0,9.95-8.06,18.02-18,18.02s-18-8.07-18-18.02,8.06-18.03,18-18.03,18,8.07,18,18.03Z"/>
      <ellipse class="cls-1" cx="570.67" cy="327.92" rx="18" ry="18.02"/>
      <path class="cls-2" d="m280.67,113.62c0,9.95-8.06,18.03-18,18.03s-18-8.07-18-18.03,8.06-18.02,18-18.02,18,8.07,18,18.02Z"/>
      <ellipse class="cls-2" cx="224.67" cy="704.43" rx="8" ry="8.01"/>
      <path class="cls-2" d="m156.67,55.54c0,4.42-3.58,8.01-8,8.01s-8-3.59-8-8.01,3.58-8.01,8-8.01,8,3.58,8,8.01Z"/>
      <path class="cls-2" d="m1184.5,191.56c0,7.75-6.27,14.02-14,14.02s-14-6.28-14-14.02,6.27-14.02,14-14.02,14,6.28,14,14.02Z"/>
      <path class="cls-2" d="m1399,668.72c0,7.75-6.27,14.02-14,14.02s-14-6.27-14-14.02,6.27-14.02,14-14.02,14,6.28,14,14.02Z"/>
      <path class="cls-1" d="m1136.67,30.51c0,8.29-6.71,15.02-15,15.02s-15-6.73-15-15.02,6.72-15.02,15-15.02,15,6.72,15,15.02Z"/>
      <path class="cls-1" d="m81,444.55c0,3.32-2.69,6.01-6,6.01s-6-2.69-6-6.01,2.69-6.01,6-6.01,6,2.69,6,6.01Z"/>
      <path class="cls-1" d="m633.5,378.82c0,3.32-2.69,6.01-6,6.01s-6-2.69-6-6.01,2.69-6.01,6-6.01,6,2.69,6,6.01Z"/>
      <path class="cls-1" d="m1059,537.67c0,3.32-2.69,6.01-6,6.01s-6-2.69-6-6.01,2.69-6.01,6-6.01,6,2.69,6,6.01Z"/>
      <path class="cls-1" d="m1366,494.62c0,3.32-2.69,6.01-6,6.01s-6-2.69-6-6.01,2.69-6.01,6-6.01,6,2.69,6,6.01Z"/>
    </g>
  </g>
</svg>