<?xml version="1.0" encoding="UTF-8"?>
<svg id="Warstwa_2" data-name="Warstwa 2" xmlns="http://www.w3.org/2000/svg" xmlns:xlink="http://www.w3.org/1999/xlink" viewBox="0 0 1440 1000">
  <defs>
    <style>
      .cls-1, .cls-2 {
        opacity: .1;
      }

      .cls-1, .cls-3 {
        fill: #fff;
      }

      .cls-4 {
        fill: url(#New_Gradient_Swatch_4);
      }

      .cls-2 {
        fill: #6a6d89;
      }

      .cls-3 {
        opacity: .6;
      }
    </style>
    <linearGradient id="New_Gradient_Swatch_4" data-name="New Gradient Swatch 4" x1="58.98" y1="-68.57" x2="1377.54" y2="1065.58" gradientUnits="userSpaceOnUse">
      <stop offset="0" stop-color="#15eded"/>
      <stop offset="1" stop-color="#029cf5"/>
    </linearGradient>
  </defs>
  <g id="Layer_1" data-name="Layer 1">
    <g>
      <rect class="cls-4" width="1440" height="1000"/>
      <path class="cls-1" d="m1133.79,423.19c-236.07-89.65-221.07,79.42-393.56,79.42h-176.73c-106.67.42-94.76-160.07-249.33-184.07-144.2-22.39-152.42,42.57-225.33,42.98-26.62.15-58.31.96-88.83-9.18v647.66h1440V305.07c-28.02-16.24-56.56-40.39-80.88-40.53-72.92-.42-88.92,210.45-225.33,158.65Z"/>
      <path class="cls-1" d="m1133.79,753.5c-164.83,1.81-142.67,75.47-249.33,75.07h-320.96c-106.67.39-84.5-203.38-249.33-205.2-145.91-1.6-152.42,71.43-225.33,71.83-26.62.14-58.31.9-88.83-8.68v313.47h1440v-358.16c-28.02-15.35-56.56-38.18-80.88-38.31-72.92-.39-79.42,148.37-225.33,149.97Z"/>
      <path class="cls-3" d="m980.55,871.08c-.79,1.08-1.58,2.15-2.37,3.23l.81.59c.79-1.07,1.57-2.15,2.36-3.23l-.81-.59h0Zm-11.89,16.08l.8.61c.8-1.06,1.61-2.13,2.41-3.2l-.8-.6c-.8,1.07-1.6,2.14-2.4,3.19Zm4.79-6.4l.8.59c.79-1.07,1.58-2.14,2.37-3.22l-.81-.59c-.79,1.08-1.58,2.15-2.37,3.22Zm9.47-12.9l.8.59c.79-1.07,1.58-2.14,2.38-3.21l-.8-.6c-.8,1.07-1.59,2.15-2.38,3.22Zm4.78-6.42l.8.6c.8-1.06,1.61-2.12,2.42-3.18l-.79-.61c-.82,1.06-1.62,2.12-2.42,3.19Zm94.62-70.14l.26.96c1.27-.35,2.55-.68,3.85-1.01l-.24-.97c-1.31.33-2.6.66-3.88,1.01Zm-140.37,125.36l.64.77c1.03-.86,2.04-1.74,3.03-2.64l-.67-.74c-.99.89-1.99,1.77-3.01,2.62Zm50.63-61.57l.79.62c.82-1.05,1.64-2.09,2.48-3.13l-.78-.62c-.84,1.04-1.66,2.09-2.48,3.14Zm-56.91,66.43l.58.82c1.09-.77,2.16-1.57,3.22-2.39l-.61-.79c-1.04.81-2.11,1.6-3.19,2.37Zm28.09-28.04l.78.62c.83-1.04,1.65-2.09,2.47-3.15l-.79-.61c-.82,1.06-1.64,2.11-2.46,3.14Zm-5.06,6.17l.76.65c.86-1.01,1.72-2.04,2.56-3.08l-.77-.63c-.85,1.03-1.7,2.06-2.55,3.07Zm-5.28,5.97l.73.68c.9-.98,1.8-1.97,2.69-2.97l-.75-.66c-.88,1-1.78,1.98-2.67,2.96Zm-5.57,5.7l.69.72c.96-.92,1.91-1.87,2.84-2.83l-.71-.7c-.93.95-1.87,1.89-2.82,2.81Zm104.58-108.55l.46.89c1.17-.6,2.36-1.19,3.57-1.76l-.43-.9c-1.22.58-2.41,1.17-3.6,1.77Zm-7.04,3.83l.5.87c1.14-.66,2.3-1.31,3.47-1.95l-.48-.88c-1.18.64-2.35,1.3-3.49,1.96Zm14.28-7.28l.4.91c1.21-.53,2.42-1.06,3.66-1.57l-.38-.92c-1.24.51-2.47,1.04-3.68,1.58Zm14.96-5.73l.31.95c1.25-.41,2.52-.8,3.8-1.19l-.29-.96c-1.29.39-2.56.78-3.82,1.19Zm-7.56,2.67l.36.93c1.23-.47,2.47-.93,3.74-1.37l-.33-.94c-1.27.45-2.52.91-3.76,1.38Zm-28.51,14.55l.55.84c1.1-.72,2.22-1.44,3.36-2.14l-.53-.85c-1.14.71-2.27,1.42-3.38,2.15Zm-35.81,31.9l.75.66c.87-1,1.75-2,2.65-2.99l-.74-.67c-.9.99-1.78,1.99-2.66,3Zm29.23-27.32l.59.81c1.07-.78,2.15-1.55,3.24-2.32l-.57-.82c-1.1.77-2.19,1.54-3.26,2.33Zm-23.85,21.38l.73.68c.91-.97,1.82-1.93,2.76-2.88l-.72-.7c-.93.96-1.86,1.93-2.77,2.9Zm-10.55,12.07l.77.64c.84-1.03,1.7-2.05,2.56-3.07l-.76-.64c-.86,1.02-1.72,2.05-2.56,3.08Zm16.14-17.81l.7.71c.94-.93,1.9-1.85,2.87-2.77l-.69-.73c-.98.92-1.94,1.85-2.89,2.78Zm5.83-5.5l.67.74c.98-.89,1.98-1.76,2.99-2.63l-.65-.76c-1.02.88-2.02,1.76-3.01,2.65Zm6.08-5.22l.63.77c1.02-.84,2.06-1.66,3.12-2.48l-.61-.79c-1.06.82-2.11,1.65-3.14,2.5Zm-93.26,103.45c-1.11.72-2.23,1.41-3.38,2.07l.5.86c1.16-.67,2.3-1.37,3.42-2.1l-.54-.84h0Zm-145.06,14.22h4v-1h-4v1Zm8,0h4v-1h-4v1Zm-16,0h4v-1h-4v1Zm32,0h4v-1h-4v1Zm-40,0h4v-1h-4v1Zm32,0h4v-1h-4v1Zm-48,0h4v-1h-4v1Zm-16,0h4v-1h-4v1Zm-8,0h4v-1h-4v1Zm16,0h4v-1h-4v1Zm16,0h4v-1h-4v1Zm56,0h4v-1h-4v1Zm48,0h4v-1h-4v1Zm27.93-1.47c-1.3.13-2.62.23-3.96.3l.06,1c1.36-.08,2.69-.18,4-.31l-.1-.99h0Zm-7.94.45c-.67.01-1.34.02-2.02.02-.28,0-.57,0-.85,0h-1.12v1h1.12c.28,0,.57,0,.85,0,.69,0,1.36,0,2.04-.02l-.02-1h0Zm-59.99,1.02h4v-1h-4v1Zm91-6.94c-1.22.48-2.45.94-3.72,1.37l.32.95c1.28-.44,2.53-.9,3.76-1.39l-.37-.93h0Zm-11.33,3.55l.23.97c1.32-.31,2.61-.65,3.88-1.01l-.28-.96c-1.26.36-2.53.69-3.83,1Zm-31.67,3.38h4v-1h-4v1Zm23.87-1.93l.14.99c1.34-.19,2.66-.4,3.96-.65l-.18-.98c-1.28.24-2.59.45-3.91.64Zm-63.87,1.93h4v-1h-4v1Zm8,0h4v-1h-4v1Zm-120,0h4v-1h-4v1Zm198.64-8.5l.41.91c1.22-.56,2.43-1.15,3.61-1.76l-.46-.89c-1.17.61-2.35,1.19-3.56,1.74Zm-62.64,8.5h4v-1h-4v1Zm-8,0h4v-1h-4v1Zm238.77-148.61l.22.98c1.28-.29,2.58-.57,3.9-.84l-.2-.98c-1.32.27-2.63.55-3.92.84Zm241.95-117.88l.42.91c1.2-.55,2.41-1.07,3.63-1.54l-.36-.93c-1.25.49-2.48,1.01-3.69,1.57Zm-13.77,8.24l.59.81c1.08-.79,2.16-1.55,3.25-2.28l-.56-.83c-1.11.74-2.2,1.51-3.29,2.31Zm6.67-4.47l.52.86c1.14-.69,2.28-1.34,3.45-1.96l-.47-.88c-1.18.63-2.34,1.29-3.49,1.99Zm14.58-6.68l.3.95c1.25-.39,2.52-.75,3.81-1.07l-.24-.97c-1.31.32-2.6.68-3.87,1.08Zm3.87-1.08h0,0Zm-70.82,57.03l.71.7c.94-.95,1.88-1.9,2.81-2.85l-.72-.7c-.92.95-1.86,1.9-2.8,2.85Zm16.57-17.34l.73.69c.92-.98,1.83-1.95,2.75-2.91l-.73-.69c-.91.96-1.83,1.93-2.75,2.91Zm-5.48,5.83l.73.68c.92-.98,1.83-1.95,2.74-2.91l-.73-.68c-.91.96-1.82,1.94-2.74,2.91Zm-5.51,5.79l.72.69c.93-.97,1.85-1.93,2.77-2.89l-.72-.69c-.91.96-1.83,1.92-2.76,2.89Zm22.09-23.17l.71.71c.95-.95,1.89-1.88,2.84-2.8l-.7-.72c-.95.92-1.9,1.86-2.85,2.82Zm5.75-5.59l.68.73c.98-.92,1.96-1.81,2.94-2.69l-.67-.75c-.99.88-1.97,1.79-2.96,2.71Zm-8.56,8.44c-.92.95-1.85,1.91-2.78,2.88l.72.69c.93-.97,1.85-1.93,2.77-2.88l-.71-.7h0Zm49.9-31.82l.17.98c1.28-.22,2.58-.41,3.91-.55l-.11-.99c-1.35.15-2.67.33-3.98.56Zm79.04-8.09l.33.94c1.25-.45,2.51-.92,3.76-1.41l-.37-.93c-1.24.49-2.48.96-3.72,1.4Zm-7.59,2.39l.27.96c1.28-.35,2.57-.73,3.85-1.13l-.3-.95c-1.27.4-2.55.78-3.82,1.12Zm-7.74,1.85l.2.98c1.3-.27,2.61-.55,3.92-.87l-.23-.97c-1.3.31-2.59.6-3.89.86Zm26.33-8.86h0,0Zm0,0c-1.2.59-2.4,1.15-3.6,1.68l.41.91c1.21-.54,2.43-1.1,3.64-1.69l-.44-.9Zm-34.18,10.21l.14.99c1.32-.19,2.64-.39,3.96-.62l-.17-.99c-1.32.23-2.63.43-3.94.62Zm-23.87,1.68v1c1.34-.02,2.68-.05,4.02-.09l-.03-1c-1.34.04-2.67.07-3.99.09Zm-16,.94c1.32.02,2.66.04,4,.05v-1c-1.33-.02-2.67-.03-3.99-.05v1Zm10.99-.9c-1,0-1.99,0-2.98,0v1c.98,0,1.98,0,2.98,0,.34,0,.68,0,1.02,0v-1c-.34,0-.68,0-1.02,0Zm12.99-.27l.05,1c1.33-.06,2.66-.13,4-.23l-.07-1c-1.33.09-2.66.16-3.98.22Zm-28.94.11c-1.03,0-2.04.02-3.04.07l.05,1c.99-.04,1.98-.07,3-.07.25,0,.49,0,.74,0,.07,0,.15,0,.22,0v-1c-.06,0-.14,0-.21,0-.25,0-.5,0-.75,0Zm36.9-.65l.09,1c1.33-.12,2.66-.25,3.99-.41l-.11-.99c-1.33.15-2.65.29-3.97.4Zm-83.28,19.63l.65.76c1.02-.87,2.04-1.71,3.08-2.52l-.62-.78c-1.04.83-2.08,1.67-3.1,2.55Zm-174.21,99.46l.04,1c1.35-.05,2.68-.11,4-.18l-.05-1c-1.32.07-2.65.13-3.99.18Zm15.92-1.09l.1,1c1.34-.14,2.67-.28,3.98-.44l-.12-.99c-1.31.16-2.63.3-3.97.44Zm-7.95.67l.07,1c1.34-.09,2.67-.19,4-.3l-.09-1c-1.31.11-2.64.21-3.98.3Zm15.87-1.62l.14.99c1.33-.18,2.66-.38,3.96-.58l-.15-.99c-1.3.2-2.62.4-3.95.58Zm105.27-52.01l.69.72c.97-.93,1.93-1.86,2.87-2.79l-.7-.71c-.95.93-1.9,1.86-2.86,2.78Zm-97.39,50.78l.17.98c1.33-.23,2.64-.48,3.94-.73l-.19-.98c-1.29.25-2.6.49-3.92.73Zm7.83-1.53l.21.98c1.32-.29,2.62-.58,3.91-.89l-.23-.97c-1.28.31-2.58.6-3.89.88Zm-75.43,7.72c-1.33.21-2.65.44-3.95.67l.18.98c1.29-.24,2.6-.46,3.93-.67l-.16-.99h0Zm3.96-.6l.14.99c1.3-.18,2.62-.36,3.95-.52l-.12-.99c-1.34.16-2.66.34-3.97.52Zm7.95-.97l.1.99c1.31-.13,2.63-.26,3.97-.38l-.09-1c-1.34.12-2.67.24-3.99.38Zm7.98-.69l.07,1c1.31-.09,2.64-.17,3.98-.24l-.05-1c-1.34.07-2.68.15-4,.24Zm11.98-.54c-1.34.03-2.67.07-3.99.12l.04,1c1.31-.05,2.63-.09,3.97-.12l-.02-1h0Zm51.3-6.76l.25.97c1.3-.34,2.59-.69,3.87-1.05l-.27-.96c-1.27.36-2.55.71-3.85,1.04Zm57.41-26.87l.58.81c1.09-.78,2.17-1.57,3.23-2.37l-.6-.8c-1.06.79-2.13,1.58-3.21,2.36Zm9.5-7.27c-1.02.83-2.06,1.66-3.12,2.49l.62.79c1.06-.83,2.1-1.66,3.13-2.5l-.63-.77h0Zm-16.07,11.78l.55.84c1.12-.73,2.23-1.48,3.33-2.23l-.57-.82c-1.09.75-2.19,1.48-3.31,2.21Zm19.14-14.32l.65.76c1.03-.87,2.04-1.74,3.04-2.62l-.66-.75c-1,.87-2,1.74-3.02,2.6Zm-58.51,33.31h0s0,0,0,0h0Zm64.52-38.57l.67.74c1-.9,1.98-1.81,2.95-2.71l-.68-.73c-.97.9-1.95,1.8-2.94,2.7Zm-31.92,23.78l.51.86c1.16-.68,2.3-1.37,3.43-2.07l-.53-.85c-1.12.7-2.26,1.38-3.41,2.06Zm-28.83,13.48l.34.94c1.27-.45,2.52-.92,3.76-1.39l-.36-.93c-1.23.47-2.48.93-3.74,1.39Zm-7.56,2.51l.29.96c1.29-.4,2.56-.8,3.82-1.22l-.32-.95c-1.25.41-2.51.82-3.79,1.21Zm15-5.37l.38.92c1.25-.51,2.48-1.04,3.69-1.57l-.4-.92c-1.21.53-2.43,1.05-3.67,1.56Zm14.43-6.75l.47.88c1.19-.63,2.36-1.26,3.52-1.91l-.49-.87c-1.15.64-2.32,1.27-3.5,1.9Zm-7.14,3.54l.42.9c1.22-.57,2.42-1.15,3.61-1.74l-.45-.9c-1.18.59-2.38,1.16-3.59,1.73Zm-651.71,170.19v1c.06,0,.11,0,.17,0h3.83v-1h-3.84c-.06,0-.11,0-.17,0Zm-342.16-176.25h0s0,0,0,0h0Zm3.02,2.81c1.17.63,2.35,1.25,3.55,1.85l.45-.89c-1.19-.6-2.37-1.22-3.53-1.84l-.47.88Zm-6.97-3.96c1.14.68,2.29,1.36,3.46,2.02l.49-.87c-1.16-.66-2.31-1.33-3.44-2.01l-.51.86Zm18.17,8.35h0s0,0,0,0h0Zm-4.05-.77c1.2.57,2.41,1.13,3.64,1.68l.41-.91c-1.22-.55-2.43-1.11-3.62-1.67l-.43.9Zm-20.91-11.85c1.11.73,2.23,1.46,3.37,2.18l.53-.85c-1.13-.71-2.25-1.43-3.35-2.16l-.55.83Zm-6.58-4.58c1.07.78,2.16,1.56,3.27,2.32l.57-.82c-1.1-.76-2.18-1.53-3.25-2.31l-.59.81Zm-24.4-20.76c.95.92,1.92,1.85,2.9,2.77l.69-.73c-.97-.92-1.94-1.84-2.89-2.76l-.7.72Zm59.21,40.46c1.22.51,2.46,1.02,3.71,1.51l.36-.93c-1.25-.49-2.48-.99-3.69-1.5l-.39.92Zm-53.38-34.97c.98.9,1.97,1.79,2.98,2.68l.67-.75c-1-.89-1.99-1.78-2.97-2.67l-.67.74Zm-11.53-11.13c.93.95,1.88,1.89,2.83,2.84l.7-.71c-.95-.94-1.89-1.89-2.82-2.83l-.71.7Zm23.71,21.54c1.04.83,2.1,1.65,3.16,2.46l.61-.79c-1.06-.81-2.11-1.62-3.15-2.45l-.62.78Zm-6.19-5.1c1.01.86,2.03,1.72,3.07,2.58l.64-.77c-1.03-.85-2.05-1.71-3.06-2.57l-.65.76Zm85.76,40.9c1.3.24,2.62.46,3.95.68l.16-.99c-1.32-.21-2.63-.44-3.93-.67l-.18.98Zm31.83,3.45c1.32.06,2.66.1,4,.14l.03-1h0c-1.34-.04-2.67-.08-3.99-.14l-.04,1Zm-8-.46c1.32.1,2.65.18,4,.26l.06-1c-1.34-.08-2.67-.16-3.98-.26l-.07,1Zm16,.7c1.34.04,2.67.1,3.99.16l.05-1c-1.32-.06-2.66-.12-4-.16l-.03,1Zm15.92,1.03c1.34.13,2.66.27,3.97.42l.12-.99c-1.31-.15-2.64-.29-3.98-.43l-.1,1Zm-39.9-2.45c1.32.14,2.64.27,3.99.39l.09-1h0c-1.34-.12-2.66-.25-3.97-.39l-.11.99Zm31.95,1.8c1.34.09,2.67.18,3.98.29l.08-1h0c-1.32-.11-2.65-.2-4-.29l-.06,1Zm-55.66-5.66c1.29.29,2.6.57,3.92.83l.2-.98c-1.31-.27-2.61-.54-3.9-.83l-.22.98Zm-15.48-4.15c1.26.4,2.54.79,3.84,1.16l.28-.96c-1.29-.37-2.56-.76-3.81-1.16l-.3.95Zm7.7,2.24c1.28.34,2.57.67,3.88.99l.24-.97c-1.3-.32-2.59-.65-3.86-.99l-.26.97Zm-93.23-59.59c.92.96,1.84,1.92,2.78,2.88l.72-.7c-.93-.96-1.86-1.92-2.77-2.88l-.72.69Zm78.29,53.83l-.34.94c1.24.46,2.5.9,3.78,1.33l.32-.95h0c-1.27-.43-2.52-.87-3.76-1.33Zm38.49,10.54c1.31.19,2.63.36,3.97.53l.12-.99c-1.33-.17-2.65-.34-3.95-.53l-.14.99Zm-201.62-117.15v1c1.36-.02,2.69-.04,4.01-.05v-1c-1.33.02-2.67.04-4.01.05Zm-24.02.75c1.34.07,2.68.13,4.01.17l.03-1c-1.32-.04-2.65-.1-3.99-.17l-.05,1Zm-8-.59c1.34.13,2.67.24,4,.34l.07-1c-1.32-.1-2.64-.21-3.97-.34l-.1,1Zm-15.86-2.42c1.32.28,2.63.54,3.94.78l.18-.98c-1.3-.24-2.6-.49-3.91-.77l-.21.98Zm7.9,1.44c1.33.2,2.66.38,3.98.54l.12-.99c-1.31-.16-2.63-.34-3.95-.54l-.15.99Zm23.98,1.85c1.34.03,2.68.04,4.01.05v-1c-1.32,0-2.65-.02-3.99-.05l-.02,1Zm8.01-.95v1c1.35,0,2.68-.02,4.01-.03v-1c-1.33.01-2.66.02-4.01.03Zm-62.72-9.85c1.23.56,2.46,1.09,3.68,1.6l.38-.92h0c-1.21-.5-2.43-1.03-3.65-1.59l-.42.91Zm-12.61-6.87c.66.42,1.31.84,1.97,1.24l.52-.86c-.83-.5-1.66-1.04-2.49-1.57v1.18Zm5.45,3.25c1.18.66,2.37,1.28,3.55,1.88l.45-.89c-1.17-.59-2.34-1.21-3.52-1.86l-.48.87Zm335.41,133.91l-.13.99c1.33.18,2.64.37,3.94.57l.15-.99h0c-1.31-.2-2.63-.39-3.96-.57ZM27.67,661.58c1.29.37,2.59.72,3.88,1.04l.24-.97c-1.28-.32-2.56-.66-3.84-1.03l-.28.96Zm-7.63-2.5c1.26.46,2.53.9,3.79,1.32l.31-.95h0c-1.25-.41-2.5-.84-3.76-1.31l-.35.94Zm86.88,10.08c1.27.37,2.52.79,3.75,1.24l.34-.94c-1.25-.46-2.52-.88-3.81-1.26l-.28.96Zm21.14,10.63c1.07.77,2.13,1.56,3.19,2.37l.61-.79c-1.06-.82-2.14-1.62-3.22-2.4l-.58.81Zm-36.73-13.04c1.34.04,2.66.11,3.96.23l.09-1c-1.32-.12-2.66-.19-4.02-.23l-.03,1Zm54.76,28.7c.94.93,1.87,1.88,2.81,2.83l.71-.7h0c-.94-.96-1.88-1.91-2.82-2.84l-.71.71Zm-5.75-5.53c.97.89,1.93,1.81,2.9,2.74l.69-.72c-.97-.93-1.94-1.85-2.92-2.75l-.68.73Zm16.86,17.02c.91.96,1.82,1.94,2.74,2.91l.73-.69c-.92-.98-1.83-1.95-2.74-2.92l-.73.69Zm-5.51-5.79c.92.95,1.84,1.92,2.76,2.89l.72-.69h0c-.93-.97-1.85-1.94-2.77-2.89l-.72.69Zm-17.33-16.49c1.01.84,2.02,1.7,3.03,2.59l.66-.75h0c-1.01-.89-2.03-1.76-3.05-2.61l-.64.77Zm580.99,253.31h4v-1h-4v1Zm-552.67-225.2c.91.97,1.83,1.94,2.75,2.91l.73-.69c-.92-.97-1.84-1.94-2.75-2.91l-.73.68Zm-63.46-45.32c1.32.2,2.61.45,3.88.73l.22-.98h0c-1.3-.29-2.61-.54-3.95-.74l-.15.99Zm22.19,8.03c1.14.66,2.26,1.35,3.38,2.08l.54-.84c-1.13-.73-2.27-1.43-3.42-2.11l-.5.87Zm-7.06-3.6c1.21.53,2.4,1.1,3.58,1.7l.45-.89c-1.19-.61-2.4-1.18-3.63-1.72l-.4.92Zm10.98,4.84h0s0,0,0,0c0,0,0,0,0,0Zm462.02,261.25h4v-1h-4v1Zm-8,0h4v-1h-4v1Zm-8,0h4v-1h-4v1Zm32,0h4v-1h-4v1Zm-48.01-.24c1.31.09,2.65.16,4,.2l.03-1c-1.34-.04-2.66-.11-3.97-.2l-.07,1Zm40.01.24h4v-1h-4v1Zm-47.83-2.11l-.15.99c1.3.2,2.63.38,3.97.53l.11-.99h0c-1.33-.15-2.64-.32-3.93-.52Zm63.83,2.11h4v-1h-4v1Zm-94.01-11.93c1.15.69,2.31,1.36,3.5,1.99l.47-.88c-1.17-.63-2.32-1.29-3.46-1.97l-.52.86Zm-6.67-4.44c1.08.79,2.17,1.55,3.28,2.29l.55-.83c-1.1-.73-2.18-1.49-3.24-2.27l-.59.81Zm13.75,8.25c1.2.57,2.42,1.12,3.66,1.64l.38-.92c-1.23-.51-2.43-1.05-3.62-1.61l-.43.9Zm15.09,5.41c1.28.32,2.59.62,3.91.88l.2-.98c-1.31-.26-2.6-.55-3.87-.87l-.24.97Zm-35.12-18.66c1.01.87,2.05,1.73,3.09,2.56l.62-.78c-1.04-.83-2.06-1.67-3.06-2.54l-.65.76Zm27.44,16.33c1.25.45,2.52.87,3.81,1.26l.29-.96c-1.28-.39-2.53-.8-3.76-1.24l-.34.94Zm151.52,5.04h4v-1h-4v1Zm-16,0h4v-1h-4v1Zm24,0h4v-1h-4v1Zm-16,0h4v-1h-4v1Zm24,0h4v-1h-4v1Zm-80,0h4v-1h-4v1Zm88,0h4v-1h-4v1Zm-72,0h4v-1h-4v1Zm-8,0h4v-1h-4v1Zm24,0h4v-1h-4v1Zm-8,0h4v-1h-4v1Zm16,0h4v-1h-4v1Zm-191.13-64.09c.79,1.08,1.58,2.16,2.36,3.23l.81-.59c-.79-1.07-1.57-2.15-2.37-3.23l-.81.59Zm-74.27-70.77c1.2.6,2.38,1.21,3.54,1.83l.47-.88c-1.17-.62-2.36-1.24-3.56-1.84l-.45.89Zm13.84,7.87c1.12.72,2.23,1.46,3.32,2.2l.56-.83c-1.1-.75-2.21-1.49-3.34-2.21l-.54.84Zm24.84,19.88c.95.93,1.9,1.87,2.83,2.81l.71-.7c-.94-.95-1.88-1.89-2.84-2.82l-.7.72Zm-18.26-15.4c1.08.78,2.15,1.57,3.2,2.37l.61-.8c-1.06-.81-2.13-1.6-3.22-2.39l-.59.81Zm12.42,9.97c1,.89,1.98,1.78,2.95,2.68l.68-.73c-.98-.91-1.96-1.8-2.97-2.7l-.66.75Zm-6.09-5.14c1.04.83,2.06,1.68,3.08,2.53l.65-.76c-1.02-.86-2.05-1.71-3.09-2.55l-.63.78Zm-19.72-13.44c1.16.66,2.3,1.33,3.43,2.01l.52-.86c-1.14-.69-2.29-1.36-3.46-2.03l-.49.87Zm-36.8-14.91c1.29.34,2.57.7,3.84,1.07l.28-.96c-1.27-.37-2.56-.73-3.86-1.08l-.26.97Zm22.56,7.8c1.23.53,2.44,1.08,3.63,1.63l.42-.91h0c-1.2-.56-2.42-1.11-3.66-1.64l-.4.92Zm-30.3-9.67c1.31.29,2.6.58,3.88.89l.24-.97c-1.29-.31-2.59-.61-3.91-.9l-.21.98Zm22.92,6.7c1.26.47,2.49.95,3.71,1.44l.37-.93c-1.23-.5-2.47-.98-3.74-1.45l-.35.94Zm-7.53-2.6c1.28.41,2.54.82,3.78,1.25l.32-.94c-1.25-.43-2.52-.85-3.8-1.26l-.3.95Zm115.84,105.16c.86,1.03,1.73,2.05,2.6,3.05l.75-.66c-.87-1-1.73-2.01-2.59-3.03l-.77.64Zm-9.93-12.58c.81,1.07,1.62,2.13,2.43,3.19l.79-.61c-.81-1.05-1.61-2.11-2.42-3.18l-.8.6Zm4.89,6.35c.83,1.05,1.66,2.1,2.5,3.13l.78-.63c-.83-1.03-1.66-2.07-2.49-3.12l-.79.62Zm-9.67-12.77c.79,1.08,1.59,2.15,2.38,3.22l.8-.6c-.79-1.07-1.58-2.14-2.38-3.21l-.8.59Zm-124.34-91.8c1.32.23,2.63.47,3.92.73l.19-.98c-1.3-.25-2.61-.5-3.94-.73l-.17.98Zm149.89,122.63c.96.94,1.92,1.86,2.9,2.77l.68-.73c-.97-.9-1.93-1.81-2.88-2.75l-.7.71Zm-5.56-5.79c.91.99,1.82,1.97,2.74,2.93l.72-.69c-.92-.95-1.82-1.92-2.72-2.91l-.74.67Zm-29.46-37.94c.79,1.07,1.59,2.15,2.37,3.22l.81-.59c-.79-1.07-1.58-2.15-2.38-3.22l-.8.59Zm-25.25-30.9c.92.97,1.82,1.94,2.72,2.92l.74-.68c-.9-.98-1.81-1.96-2.73-2.93l-.72.69Zm5.38,5.89c.88,1,1.75,2.01,2.61,3.01l.76-.65c-.87-1.01-1.74-2.02-2.63-3.03l-.75.66Zm5.18,6.07c.85,1.03,1.69,2.06,2.53,3.09l.78-.63c-.84-1.04-1.68-2.07-2.54-3.1l-.77.64Zm5.02,6.21c.83,1.05,1.64,2.1,2.46,3.15l.79-.61c-.81-1.05-1.63-2.11-2.46-3.16l-.79.62Zm4.88,6.32c.81,1.06,1.61,2.13,2.4,3.19l.8-.6c-.8-1.07-1.6-2.13-2.41-3.2l-.8.6Z"/>
      <path class="cls-3" d="m982.86,637.52l.93.36c.48-1.24.96-2.49,1.44-3.73l-.93-.36c-.48,1.25-.96,2.49-1.44,3.74Zm-2.86,7.48l.93.36c.48-1.25.95-2.49,1.43-3.74l-.93-.36c-.48,1.25-.96,2.5-1.43,3.74Zm-5.72,14.95l.93.36c.48-1.24.96-2.49,1.43-3.74l-.93-.36c-.48,1.25-.96,2.49-1.43,3.74Zm18.89-48.5h0s0,0,0,0Zm59.45-98.93l.7.72c.95-.93,1.92-1.84,2.89-2.74l-.68-.74c-.98.9-1.95,1.82-2.91,2.75Zm-60.96,102.64l.93.38c.5-1.24,1-2.47,1.51-3.7l-.92-.38c-.51,1.23-1.01,2.47-1.51,3.71Zm-1.5,3.71h0s0,0,0,0h0Zm-1.48,3.72l.93.37c.49-1.24.98-2.48,1.48-3.72l-.93-.37c-.5,1.24-.99,2.48-1.48,3.72Zm-2.93,7.46l.93.36c.48-1.24.97-2.48,1.46-3.73l-.93-.37c-.49,1.24-.98,2.49-1.46,3.73Zm-29.74,74.28l.91.42c.56-1.21,1.11-2.42,1.66-3.65l-.91-.41c-.55,1.22-1.1,2.44-1.65,3.64Zm15.38-36.91l.93.36c.48-1.24.96-2.49,1.45-3.73l-.93-.36c-.48,1.25-.96,2.49-1.45,3.73Zm-18.81,44.13l.9.44c.58-1.19,1.16-2.4,1.74-3.61l-.9-.43c-.58,1.21-1.15,2.41-1.74,3.6Zm8.29-18.18c-.53,1.23-1.06,2.45-1.59,3.67l.92.4c.53-1.22,1.06-2.44,1.59-3.68l-.92-.39h0Zm7.59-18.5l.93.37c.49-1.24.98-2.48,1.47-3.73l-.93-.37c-.49,1.25-.98,2.49-1.47,3.72Zm-2.98,7.43l.93.38c.5-1.23,1-2.47,1.5-3.71l-.93-.37c-.5,1.24-1,2.48-1.5,3.71Zm-16.52,36.38l.89.46c.62-1.17,1.23-2.36,1.84-3.56l-.89-.45c-.61,1.2-1.22,2.38-1.83,3.55Zm13.47-28.99l.92.39c.52-1.22,1.03-2.46,1.54-3.7l-.92-.38c-.51,1.24-1.02,2.47-1.54,3.69Zm64.94-146.1l.83.55c.73-1.12,1.47-2.22,2.22-3.32l-.83-.56c-.75,1.1-1.5,2.21-2.23,3.33Zm4.52-6.62l.81.58c.77-1.09,1.55-2.17,2.34-3.23l-.8-.6c-.79,1.07-1.58,2.16-2.35,3.25Zm-8.82,13.39l.85.52c.7-1.14,1.4-2.27,2.11-3.39l-.84-.54c-.71,1.12-1.42,2.26-2.12,3.4Zm18.62-26.08l.77.64c.86-1.02,1.72-2.03,2.6-3.02l-.75-.66c-.88,1-1.76,2.01-2.62,3.04Zm5.31-6.01l.73.68c.9-.98,1.82-1.94,2.75-2.89l-.72-.7c-.93.96-1.85,1.92-2.76,2.91Zm-7.86,9.11c-.83,1.04-1.66,2.09-2.48,3.15l.79.61c.81-1.06,1.64-2.1,2.47-3.13l-.78-.63h0Zm-18.14,26.42c-.68,1.15-1.35,2.3-2.02,3.46l.87.5c.67-1.16,1.34-2.31,2.01-3.45l-.86-.51h0Zm-7.81,14c-.62,1.18-1.24,2.37-1.84,3.56l.89.46c.61-1.19,1.22-2.37,1.84-3.55l-.89-.46h0Zm-13.79,28.9h0,0Zm-1.59,3.67l.92.39c.53-1.22,1.06-2.45,1.59-3.67l-.92-.4c-.54,1.22-1.07,2.45-1.59,3.67Zm3.21-7.33l.91.41c.54-1.22,1.09-2.43,1.64-3.64l-.91-.41c-.55,1.21-1.1,2.42-1.64,3.64Zm6.75-14.51l.9.44c.58-1.2,1.17-2.4,1.77-3.59l-.9-.45c-.59,1.19-1.18,2.39-1.77,3.59Zm-1.74,3.61c-.57,1.2-1.14,2.42-1.7,3.63l.91.42c.56-1.21,1.13-2.41,1.7-3.62l-.9-.43h0Zm-11.34,25.62l.92.38c.51-1.24,1.03-2.47,1.55-3.7l-.92-.39c-.52,1.23-1.04,2.47-1.55,3.7Zm20.39-43.49l.88.47c.64-1.17,1.28-2.34,1.92-3.5l-.87-.49c-.65,1.17-1.29,2.34-1.93,3.51Zm-36.52,84.49c-.48,1.25-.95,2.5-1.43,3.74l.93.36c.48-1.24.95-2.49,1.43-3.74l-.93-.36h0Zm-166.13,122.35h4v-1h-4v1Zm-8,0h4v-1h-4v1Zm-24,0h4v-1h-4v1Zm8,0h4v-1h-4v1Zm8,0h4v-1h-4v1Zm24,0h4v-1h-4v1Zm16,0h4v-1h-4v1Zm-8,0h4v-1h-4v1Zm16,0h4v-1h-4v1Zm-72,0h4v-1h-4v1Zm-48,0h4v-1h-4v1Zm16,0h4v-1h-4v1Zm-8,0h4v-1h-4v1Zm16,0h4v-1h-4v1Zm16,0h4v-1h-4v1Zm-8,0h4v-1h-4v1Zm96,0h4v-1h-4v1Zm94.64-48.9c-.65,1.18-1.3,2.34-1.95,3.48l.87.5c.66-1.15,1.31-2.32,1.96-3.5l-.87-.48h0Zm-32.76,39.29l.55.84c1.12-.72,2.21-1.49,3.29-2.29l-.6-.8c-1.06.79-2.15,1.54-3.24,2.25Zm-205.88,9.61h4v-1h-4v1Zm212.23-14.31l.64.77c1.02-.85,2.02-1.74,3-2.66l-.68-.73c-.98.91-1.96,1.79-2.96,2.62Zm22.44-27.66h0s0,0,0,0h0Zm-4.27,6.73c-.75,1.12-1.5,2.21-2.27,3.28l.81.58c.77-1.08,1.53-2.18,2.28-3.3l-.83-.56h0Zm2.18-3.34l.85.54c.71-1.12,1.41-2.26,2.11-3.41l-.86-.51c-.69,1.15-1.39,2.28-2.1,3.39Zm-14.55,18.87l.72.7c.92-.95,1.83-1.93,2.73-2.94l-.75-.67c-.89,1-1.79,1.97-2.7,2.91Zm-58.03,19.71h4v-1h-4v1Zm8,0h4v-1h-4v1Zm-16,0h4v-1h-4v1Zm31.91-1.44l.13.99c1.34-.17,2.66-.39,3.97-.66l-.2-.98c-1.28.26-2.58.48-3.89.65Zm7.72-1.6l.28.96c1.29-.37,2.56-.79,3.81-1.26l-.35-.94c-1.22.46-2.47.87-3.73,1.24Zm7.36-2.75l.42.91c1.21-.56,2.4-1.17,3.58-1.82l-.49-.87c-1.15.64-2.32,1.24-3.51,1.79Zm-22.12,4.79c-.28,0-.56,0-.84,0h-.03v1h.02c.28,0,.57,0,.85,0,1.06,0,2.11-.03,3.15-.08l-.05-1c-1.02.06-2.05.08-3.1.08Zm48.9-27.77c-.81,1.07-1.63,2.11-2.47,3.12l.77.63c.84-1.03,1.67-2.07,2.49-3.15l-.79-.61h0Zm370.45-443.43l.88.48c.65-1.18,1.29-2.34,1.94-3.5l-.87-.49c-.65,1.15-1.3,2.32-1.94,3.51Zm-1.91,3.53c-.63,1.17-1.25,2.35-1.87,3.54l.89.46c.62-1.19,1.25-2.37,1.87-3.53l-.88-.47h0Zm5.84-10.52l.87.5c.68-1.16,1.35-2.31,2.03-3.44l-.86-.51c-.68,1.13-1.36,2.28-2.04,3.45Zm-11.38,21.18l.89.45c.61-1.2,1.21-2.38,1.82-3.56l-.89-.46c-.61,1.18-1.21,2.37-1.82,3.57Zm-3.59,7.16l.9.44c.6-1.2,1.19-2.39,1.79-3.58l-.89-.45c-.6,1.19-1.19,2.38-1.79,3.58Zm28.28-48.39l.79.62c.83-1.06,1.67-2.08,2.52-3.08l-.76-.65c-.86,1-1.7,2.04-2.55,3.11Zm-11.27,16.6h0,0Zm-45.94,88.85l.87.48c.65-1.17,1.29-2.34,1.93-3.51l-.88-.48c-.64,1.17-1.28,2.34-1.92,3.5Zm52.44-98.98l.82.57c.77-1.11,1.54-2.19,2.31-3.25l-.81-.59c-.78,1.06-1.56,2.15-2.33,3.27Zm-44.91,84.92l.89.46c.62-1.19,1.23-2.37,1.84-3.56l-.89-.46c-.61,1.18-1.22,2.37-1.83,3.55Zm17.85-35.81l.9.44c.59-1.2,1.18-2.4,1.77-3.59l-.9-.44c-.59,1.19-1.18,2.39-1.77,3.59Zm-14.2,28.7l.89.45c.6-1.19,1.21-2.38,1.8-3.57l-.89-.45c-.6,1.19-1.2,2.38-1.8,3.57Zm-5.5,10.65c-.62,1.17-1.24,2.35-1.87,3.52l.88.47c.63-1.18,1.25-2.35,1.87-3.53l-.88-.47h0Zm9.09-17.8l.89.45c.6-1.2,1.19-2.39,1.78-3.58l-.9-.44c-.59,1.19-1.18,2.39-1.78,3.58Zm7.08-14.36l.9.44c.59-1.2,1.18-2.4,1.76-3.59l-.9-.44c-.59,1.19-1.17,2.39-1.76,3.6Zm-3.53,7.18l.9.44c.59-1.2,1.18-2.4,1.76-3.59l-.9-.44c-.58,1.19-1.17,2.39-1.76,3.59Zm29.71-56.77l.85.53c.71-1.14,1.43-2.26,2.16-3.36l-.84-.55c-.72,1.11-1.45,2.23-2.17,3.38Zm89.41-37.78l.25.97c1.29-.33,2.57-.7,3.87-1.1l-.3-.95c-1.28.4-2.55.76-3.82,1.09Zm-7.78,1.62l.16.99c1.31-.21,2.63-.45,3.95-.73l-.2-.98c-1.31.27-2.61.51-3.91.72Zm15.35-3.99l.35.94c1.24-.46,2.49-.96,3.73-1.5l-.4-.92c-1.23.53-2.46,1.03-3.68,1.48Zm17.49-9.23c-1.1.77-2.2,1.5-3.3,2.2l.53.85c1.11-.7,2.23-1.44,3.34-2.22l-.57-.82h0Zm-10.22,6.08l.45.9c1.18-.59,2.37-1.21,3.55-1.88l-.49-.87c-1.17.66-2.34,1.27-3.51,1.86Zm13.41-8.44l.61.79c1.04-.8,2.08-1.64,3.12-2.52l-.65-.76c-1.03.87-2.06,1.7-3.09,2.5Zm-103.28,32.45l.73.68c.92-.99,1.85-1.93,2.79-2.83l-.69-.72c-.95.91-1.89,1.87-2.82,2.87Zm63.3-16.33c-1.33.16-2.65.29-3.96.39l.08,1c1.33-.11,2.66-.24,4-.4l-.12-.99h0Zm-47.44,4.11c-1.2.58-2.38,1.22-3.54,1.92l.52.85c1.14-.69,2.29-1.31,3.45-1.88l-.43-.9h0Zm-10.05,6.65l.65.76c1.02-.87,2.06-1.68,3.1-2.45l-.59-.81c-1.07.78-2.12,1.61-3.16,2.49Zm13.77-8.2l.33.94c1.23-.44,2.48-.8,3.75-1.1l-.23-.97c-1.31.3-2.6.68-3.86,1.13Zm31.81-1.77l.02,1c1.33-.03,2.67-.08,4.01-.14l-.05-1c-1.33.06-2.66.11-3.98.14Zm-7.98.02l-.02,1c1.26.02,2.54.03,3.82.03h.19v-1h-.19c-1.28,0-2.54,0-3.8-.03Zm-16.02-.05l.11.99c1.23-.14,2.49-.21,3.76-.21h.14v-1s-.09,0-.14,0c-1.31,0-2.6.07-3.87.21Zm8,.88c1.32.03,2.65.07,4,.1l.02-1c-1.34-.03-2.68-.07-4-.1l-.02,1Zm-163.65,205.25l.56.83c1.11-.74,2.21-1.5,3.3-2.28l-.58-.82c-1.08.77-2.17,1.52-3.28,2.26Zm-51.56,19.77l.14.99c1.33-.19,2.65-.4,3.96-.63l-.17-.99c-1.3.23-2.61.44-3.93.62Zm-7.92.89l.08,1c1.34-.11,2.67-.24,3.99-.39l-.11-.99c-1.31.15-2.63.28-3.96.39Zm121.37-92.69l.87.5c.67-1.16,1.33-2.32,1.99-3.48l-.87-.49c-.66,1.16-1.32,2.32-1.98,3.47Zm-137.32,93.88l.12.99c1.31-.16,2.63-.29,3.96-.41l-.09-1c-1.34.12-2.67.26-3.99.42Zm10.34-.84c-.79.04-1.58.08-2.36.12l.06,1c.78-.05,1.56-.09,2.34-.12.55-.02,1.1-.05,1.65-.08l-.06-1c-.54.03-1.09.06-1.64.08Zm36.69-6.83l.33.95c1.27-.44,2.52-.9,3.77-1.37l-.36-.93c-1.23.47-2.48.93-3.74,1.36Zm-7.59,2.36l.27.96c1.3-.35,2.58-.73,3.85-1.12l-.3-.95c-1.26.39-2.53.76-3.82,1.12Zm-7.73,1.86l.2.98c1.32-.27,2.62-.57,3.91-.88l-.23-.97c-1.28.31-2.57.6-3.88.87Zm-90.41,27.32l.61.79c1.05-.81,2.12-1.6,3.2-2.37l-.58-.81c-1.09.78-2.16,1.58-3.22,2.39Zm13.31-8.92l.5.87c1.15-.66,2.31-1.31,3.48-1.94l-.47-.88c-1.18.63-2.36,1.28-3.51,1.95Zm-6.8,4.24l.56.83c1.1-.74,2.21-1.46,3.33-2.16l-.53-.85c-1.13.71-2.25,1.43-3.36,2.18Zm106.65-29.7l.39.92c1.23-.52,2.46-1.06,3.67-1.62l-.42-.91c-1.2.55-2.41,1.09-3.64,1.61Zm-66.31,12.5c-1.31.28-2.62.59-3.9.92l.24.97c1.28-.32,2.57-.63,3.87-.91l-.21-.98h0Zm-11.6,3.15l.31.95c1.25-.41,2.52-.8,3.8-1.17l-.28-.96c-1.29.37-2.57.77-3.83,1.18Zm-14.85,6.03l.44.9c1.19-.58,2.39-1.14,3.6-1.68l-.41-.91c-1.23.55-2.44,1.12-3.63,1.7Zm7.32-3.27l.38.93c1.22-.5,2.46-.97,3.71-1.43l-.34-.94c-1.26.46-2.51.94-3.74,1.44Zm27.02-7.36c-1.33.2-2.65.42-3.95.66l.18.98c1.29-.24,2.6-.46,3.92-.66l-.15-.99h0Zm124.08-67.45l.81.58c.78-1.08,1.54-2.18,2.31-3.28l-.82-.57c-.76,1.1-1.53,2.18-2.3,3.27Zm-4.75,6.42l.79.61c.81-1.06,1.61-2.13,2.41-3.21l-.8-.59c-.79,1.07-1.59,2.13-2.4,3.19Zm7.04-9.69h0s0,0,0,0h0Zm6.62-9.99l.84.54c.72-1.13,1.43-2.27,2.14-3.41l-.85-.53c-.7,1.14-1.42,2.27-2.13,3.4Zm4.22-6.82l.86.52c.69-1.15,1.38-2.29,2.06-3.45l-.86-.51c-.68,1.15-1.36,2.3-2.05,3.44Zm-22.85,32.74l.77.64c.85-1.03,1.69-2.07,2.52-3.12l-.78-.62c-.83,1.04-1.66,2.08-2.51,3.1Zm14.25-19.24l.83.56c.74-1.11,1.48-2.22,2.21-3.34l-.84-.55c-.73,1.11-1.46,2.22-2.21,3.33Zm-189.57,102.42l.66.75c1-.87,2.02-1.73,3.04-2.56l-.63-.77c-1.03.85-2.06,1.71-3.07,2.58Zm146.82-55.41l.6.8c1.06-.8,2.11-1.62,3.15-2.45l-.62-.78c-1.03.83-2.08,1.64-3.13,2.44Zm-20.23,12.62l.45.89c1.2-.6,2.38-1.22,3.55-1.85l-.48-.88c-1.16.63-2.34,1.24-3.53,1.84Zm7-3.79l.5.87c1.16-.68,2.3-1.37,3.43-2.07l-.53-.85c-1.12.7-2.26,1.39-3.41,2.06Zm36.53-30.54l.75.66c.89-1,1.77-2,2.64-3.02l-.76-.65c-.87,1.01-1.74,2.01-2.62,3.01Zm-5.44,5.85l.72.7c.93-.96,1.86-1.94,2.77-2.92l-.73-.68c-.91.98-1.83,1.95-2.76,2.9Zm-5.7,5.6l.68.73c.98-.91,1.95-1.84,2.9-2.78l-.7-.71c-.95.93-1.91,1.86-2.88,2.76Zm-5.95,5.3l.65.76c1.02-.86,2.03-1.74,3.03-2.63l-.66-.75c-.99.88-1.99,1.75-3.01,2.61Zm-495.11,324.37h4v-1h-4v1ZM208.93,418.99c.82,1.06,1.64,2.11,2.48,3.15l.78-.62c-.83-1.04-1.65-2.08-2.46-3.14l-.79.61Zm-1.62-3.79h0s0,0,0,0h0Zm-3.16-2.62c.78,1.08,1.57,2.15,2.36,3.22l.8-.6c-.79-1.06-1.57-2.13-2.35-3.21l-.81.58Zm26.95,29.45l-.68.73c.98.91,1.97,1.81,2.98,2.69l.66-.75h0c-1-.88-1.98-1.77-2.96-2.67Zm-11.92-10.7c.9,1,1.8,1.98,2.71,2.95l.73-.68c-.91-.97-1.81-1.95-2.7-2.94l-.74.67Zm-5.24-6.07c.85,1.03,1.72,2.05,2.59,3.06l.76-.65c-.87-1.01-1.73-2.02-2.58-3.04l-.77.64Zm10.73,11.91c.94.96,1.89,1.9,2.84,2.83l.7-.72c-.95-.93-1.89-1.86-2.83-2.81l-.71.7Zm-29.5-37.83c.72,1.12,1.45,2.25,2.18,3.36l.83-.55c-.73-1.11-1.46-2.23-2.17-3.35l-.84.54Zm4.4,6.69c.75,1.1,1.5,2.2,2.26,3.3l.82-.57c-.76-1.09-1.51-2.18-2.26-3.28l-.83.56Zm-27.96-48.61c.6,1.19,1.21,2.38,1.82,3.56l.89-.46c-.61-1.19-1.22-2.38-1.82-3.56l-.89.45Zm-3.6-7.15c.59,1.19,1.19,2.38,1.79,3.58l.89-.45c-.6-1.19-1.2-2.39-1.79-3.58l-.89.45Zm22.92,42.28c.69,1.14,1.39,2.28,2.1,3.42l.85-.53c-.71-1.13-1.4-2.27-2.1-3.41l-.85.52Zm-15.66-28c.62,1.18,1.24,2.36,1.86,3.55l.88-.47c-.62-1.18-1.24-2.36-1.86-3.54l-.89.46Zm11.56,21.09c.67,1.16,1.35,2.31,2.03,3.46l.86-.51c-.68-1.15-1.36-2.3-2.03-3.46l-.87.5Zm-7.81-14.01c.63,1.18,1.27,2.35,1.91,3.52l.88-.48c-.64-1.17-1.28-2.34-1.91-3.52l-.88.47Zm3.84,7.03c.65,1.17,1.3,2.33,1.96,3.49l.87-.49c-.66-1.16-1.31-2.32-1.96-3.49l-.87.49Zm146.54,100.18h0,0s0,0,0,0Zm-12.02-.33c1.34.09,2.66.2,3.97.32l.09-.99c-1.32-.13-2.65-.24-4-.32l-.07,1Zm-15.96-1.3c1.31.18,2.64.34,3.98.48l.1-.99c-1.33-.14-2.64-.3-3.95-.48l-.13.99Zm-15.72-3.14c1.29.34,2.58.67,3.89.97l.23-.97c-1.3-.3-2.59-.62-3.86-.96l-.26.97Zm-49.26-25.98c1.02.85,2.06,1.69,3.1,2.52l.62-.79c-1.04-.82-2.07-1.66-3.08-2.5l-.64.77Zm72.95,29.97c1.32.1,2.65.18,4,.25l.05-1c-1.34-.07-2.66-.15-3.97-.25l-.08,1Zm23.77,2.47c1.31.25,2.61.52,3.89.81l.22-.98c-1.3-.29-2.6-.57-3.93-.82l-.19.98Zm-7.86-1.25c1.33.17,2.64.35,3.94.56l.16-.99c-1.31-.21-2.63-.4-3.97-.57l-.13.99Zm-160.85-136.17c.59,1.19,1.18,2.39,1.77,3.59l.89-.44h0c-.6-1.2-1.19-2.4-1.77-3.59l-.9.44Zm129.06,132.78c1.3.26,2.62.5,3.94.72l.17-.99c-1.32-.22-2.62-.46-3.91-.72l-.2.98Zm-50.79-22.84c1.07.8,2.15,1.58,3.24,2.35l.57-.82h0c-1.08-.76-2.16-1.54-3.22-2.33l-.6.8Zm35.3,18.7c1.26.43,2.54.83,3.82,1.22l.29-.96c-1.27-.39-2.54-.79-3.79-1.21l-.32.95Zm-28.74-14.1c1.12.73,2.25,1.46,3.39,2.16l.52-.85c-1.13-.7-2.25-1.41-3.36-2.14l-.55.83Zm-9.11-7.82h0s0,0,0,0t0,0Zm30.35,19.11c1.23.51,2.48,1,3.73,1.47l.35-.94h0c-1.25-.47-2.48-.96-3.7-1.46l-.38.92Zm-14.39-7.07c1.16.66,2.33,1.31,3.51,1.94l.47-.88c-1.17-.62-2.33-1.27-3.48-1.93l-.5.87Zm7.08,3.77c1.2.59,2.4,1.16,3.63,1.71l.41-.91c-1.21-.55-2.41-1.11-3.6-1.7l-.44.9Zm-108.45-144.52l-.9.44c.59,1.19,1.18,2.38,1.78,3.59l.9-.44h0c-.59-1.2-1.18-2.4-1.77-3.59Zm-100.4-71.08c1.33.2,2.66.37,3.98.52l.11-.99c-1.31-.14-2.62-.32-3.94-.51l-.15.99Zm109.23,89.05h0s0,0,0,0ZM31.37,243.04c1.22.59,2.45,1.14,3.67,1.64l.38-.92c-1.21-.5-2.41-1.04-3.62-1.62l-.43.9Zm7.41,3.1c1.28.46,2.55.87,3.82,1.25l.29-.96c-1.25-.38-2.51-.79-3.77-1.24l-.34.94Zm23.63,3.75l-.07,1c1.34.1,2.68.18,4.01.23l.04-1h0c-1.32-.06-2.64-.13-3.98-.23Zm26.4.08c-.82.02-1.64.04-2.47.06l.02,1c.83-.02,1.65-.04,2.46-.06.25,0,.49,0,.74,0s.51,0,.77,0l.02-1c-.26,0-.53,0-.79,0s-.51,0-.76,0Zm-15.19.29c-1.08,0-2.16,0-3.25-.03l-.02,1c1.1.02,2.19.03,3.27.03h.74v-1c-.25,0-.5,0-.74,0Zm8.73-.13c-1.32.03-2.65.06-3.99.08l.02,1c1.34-.02,2.68-.05,4-.08l-.03-1h0ZM.44,217.95c.87,1.04,1.74,2.06,2.62,3.04l.75-.66c-.87-.98-1.73-1.98-2.59-3.02l-.77.64Zm1438.9,7.47h0,0Zm0,0c-.96.95-1.91,1.87-2.87,2.74l.68.74c.95-.88,1.91-1.79,2.86-2.73v-.08l-.67-.67ZM94.41,250.29l-.14.99c1.3.18,2.58.44,3.84.77l.25-.97h0c-1.3-.34-2.61-.61-3.95-.79Zm-70.09-11.11c1.16.71,2.32,1.38,3.47,2.01l.48-.88c-1.14-.62-2.29-1.29-3.43-1.99l-.52.85Zm-18.56-15.24c.94.98,1.88,1.94,2.82,2.85l.7-.71c-.93-.91-1.86-1.85-2.79-2.83l-.72.69Zm11.93,10.71c1.09.82,2.17,1.6,3.26,2.35l.56-.83c-1.07-.73-2.15-1.51-3.22-2.32l-.6.8Zm-6.18-5.11c1.01.91,2.02,1.79,3.04,2.62l.64-.77c-1-.83-2-1.69-3-2.59l-.67.74Zm35.2,17.93l-.24.97c1.31.32,2.62.61,3.92.87l.19-.98h0c-1.29-.25-2.58-.54-3.88-.86Zm99.91,59.78c.61,1.17,1.22,2.36,1.84,3.55l.89-.46c-.61-1.2-1.23-2.38-1.84-3.56l-.89.46Zm3.65,7.12c.6,1.18,1.2,2.37,1.8,3.57l.9-.45c-.6-1.2-1.2-2.39-1.8-3.58l-.89.45Zm-7.41-14.18c.63,1.16,1.26,2.33,1.89,3.52l.88-.47c-.63-1.19-1.27-2.37-1.9-3.53l-.88.48Zm-41.04-46.94c1.21.47,2.4,1,3.58,1.61l.46-.89c-1.21-.62-2.43-1.17-3.67-1.65l-.36.93Zm59.1,82.64c.58,1.19,1.17,2.39,1.76,3.59l.9-.44c-.59-1.2-1.18-2.4-1.76-3.59l-.9.44Zm180,146.36c1.29.34,2.56.69,3.83,1.07l.29-.96c-1.27-.38-2.56-.74-3.86-1.08l-.25.97Zm-183.52-153.54c.59,1.19,1.17,2.39,1.76,3.59l.9-.44c-.59-1.2-1.18-2.4-1.76-3.59l-.9.44Zm-18.43-35.49c.66,1.14,1.31,2.3,1.97,3.48l.87-.49c-.66-1.18-1.32-2.34-1.98-3.49l-.87.5Zm-26.33-34.94h0s0,0,0,0c0,0,0,0,0,0Zm2.46,3.29c.97.85,1.94,1.75,2.9,2.7l.7-.71c-.97-.96-1.95-1.87-2.94-2.74l-.66.75Zm-6.29-4.75c1.09.69,2.17,1.45,3.23,2.25l.6-.8c-1.08-.82-2.18-1.59-3.3-2.3l-.54.84Zm17.04,16.4c.8,1.03,1.6,2.1,2.39,3.19l.81-.58h0c-.8-1.1-1.6-2.17-2.41-3.22l-.79.61Zm4.68,6.45c.74,1.08,1.48,2.19,2.21,3.32l.84-.54c-.74-1.14-1.48-2.25-2.22-3.34l-.83.56Zm4.35,6.69c.69,1.12,1.39,2.26,2.07,3.41l.86-.51c-.69-1.16-1.39-2.3-2.08-3.43l-.85.53Zm-14.13-19.23c.88.96,1.75,1.96,2.61,2.99l.77-.64c-.87-1.05-1.75-2.05-2.64-3.03l-.74.67Zm467.69,503.97h4v-1h-4v1Zm-54.54-8.25c1.14.71,2.3,1.38,3.48,2.01l.47-.88c-1.16-.62-2.3-1.28-3.42-1.98l-.53.85Zm7.09,3.77c1.23.54,2.47,1.03,3.73,1.48l.33-.94c-1.24-.44-2.46-.92-3.66-1.45l-.4.92Zm-12.98-9.24l-.63.78c1.04.85,2.11,1.67,3.19,2.45l.59-.81h0c-1.06-.76-2.11-1.57-3.14-2.41Zm-6.57-4.63c.95.96,1.92,1.89,2.9,2.78l.67-.74c-.97-.88-1.92-1.8-2.86-2.75l-.71.7Zm27.11,16.54c1.28.34,2.59.64,3.91.89l.19-.98c-1.3-.24-2.58-.54-3.84-.87l-.26.97Zm15.89,1.82h4v-1h-4v1Zm-48.4-24.3c.87,1.04,1.75,2.05,2.64,3.03l.74-.67c-.88-.97-1.75-1.97-2.61-3l-.77.64Zm56.4,24.3h4v-1h-4v1Zm-16.01-.33c1.31.14,2.65.25,4,.3l.04-1c-1.33-.05-2.64-.15-3.93-.29l-.11.99Zm-65.01-65.19c.57,1.22,1.13,2.43,1.71,3.63l.9-.43c-.57-1.2-1.14-2.4-1.7-3.62l-.91.42Zm3.46,7.23c.6,1.21,1.2,2.4,1.8,3.58l.89-.45h0c-.6-1.18-1.2-2.37-1.79-3.57l-.9.44Zm-9.93-21.9c.52,1.24,1.05,2.47,1.57,3.69l.92-.4c-.52-1.22-1.05-2.44-1.57-3.68l-.92.39Zm13.58,29.04c.63,1.19,1.27,2.37,1.91,3.52l.88-.48c-.64-1.16-1.28-2.33-1.91-3.51l-.88.47Zm8.07,13.87c.73,1.14,1.47,2.25,2.21,3.35l.83-.56h0c-.74-1.09-1.47-2.2-2.2-3.33l-.84.54Zm-4.17-6.85c.67,1.17,1.36,2.32,2.05,3.45l.85-.52h0c-.68-1.13-1.36-2.27-2.04-3.43l-.87.5Zm8.69,13.49c.79,1.1,1.59,2.17,2.41,3.21l.79-.61c-.8-1.04-1.6-2.1-2.39-3.19l-.81.59Zm-22.99-42.18c.54,1.23,1.08,2.45,1.63,3.66l.91-.41c-.55-1.21-1.09-2.43-1.63-3.65l-.92.4Zm172.32,72.83h4v-1h-4v1Zm-8,0h4v-1h-4v1Zm-72,0h4v-1h-4v1Zm112,0h4v-1h-4v1Zm-16,0h4v-1h-4v1Zm-32,0h4v-1h-4v1Zm-295.89-286.57c1.26.42,2.51.87,3.75,1.33l.35-.94c-1.25-.47-2.5-.91-3.78-1.34l-.32.95Zm319.89,286.57h4v-1h-4v1Zm-72,0h4v-1h-4v1Zm104,0h4v-1h-4v1Zm-64,0h4v-1h-4v1Zm-32,0h4v-1h-4v1Zm24,0h4v-1h-4v1Zm-16,0h4v-1h-4v1Zm8,0h4v-1h-4v1Zm64,0h4v-1h-4v1Zm-273.39-239.25c.8,1.05,1.6,2.12,2.39,3.19l.81-.59c-.79-1.08-1.59-2.15-2.4-3.21l-.79.61Zm4.72,6.44c.76,1.08,1.52,2.18,2.27,3.28l.83-.56c-.75-1.11-1.51-2.21-2.28-3.3l-.82.58Zm-9.69-12.67c.85,1.02,1.69,2.05,2.52,3.09l.78-.62c-.83-1.05-1.68-2.08-2.53-3.11l-.77.64Zm14.17,19.28c.72,1.11,1.44,2.23,2.16,3.36l.85-.53c-.71-1.13-1.43-2.26-2.16-3.37l-.84.54Zm4.25,6.76c.69,1.13,1.38,2.28,2.05,3.43l.86-.51c-.68-1.15-1.37-2.3-2.06-3.44l-.86.52Zm-23.67-32.03c.9.98,1.78,1.97,2.66,2.97l.75-.66c-.88-1.01-1.77-2.01-2.67-2.99l-.74.67Zm32.47,45.43l-.88.47c.63,1.17,1.25,2.35,1.87,3.53l.89-.46h0c-.62-1.19-1.25-2.37-1.88-3.54Zm2.82,7.55c.6,1.19,1.2,2.38,1.79,3.57l.9-.44c-.59-1.2-1.19-2.39-1.8-3.58l-.89.45Zm-7.57-14.07c.66,1.15,1.31,2.31,1.96,3.48l.87-.48h0c-.65-1.17-1.3-2.34-1.96-3.5l-.87.5Zm-65.34-67.9c1.19.59,2.36,1.21,3.52,1.84l.48-.88c-1.17-.64-2.36-1.26-3.56-1.85l-.45.89Zm32.08,23.26c.94.93,1.88,1.88,2.8,2.83l.72-.69c-.93-.96-1.87-1.91-2.82-2.85l-.7.71Zm-39.31-26.56c1.23.51,2.44,1.04,3.64,1.59l.42-.91c-1.21-.55-2.44-1.09-3.68-1.6l-.38.92Zm14.21,7.1c1.14.67,2.27,1.36,3.39,2.07l.54-.84c-1.13-.72-2.27-1.41-3.42-2.09l-.51.86Zm6.71,4.26c1.09.75,2.18,1.51,3.25,2.29l.59-.81c-1.08-.79-2.17-1.56-3.28-2.31l-.56.83Zm13.2,9.01l-.66.75c1,.88,1.98,1.77,2.96,2.68l.68-.73h0c-.98-.91-1.97-1.81-2.98-2.7Zm-6.78-4.32c1.04.81,2.07,1.64,3.09,2.48l.64-.77c-1.03-.85-2.06-1.69-3.11-2.5l-.62.79Zm78.28,127.91c.48,1.24.96,2.48,1.44,3.72l.93-.36c-.48-1.24-.96-2.48-1.44-3.72l-.93.36Zm5.74,14.93c.48,1.25.95,2.49,1.43,3.74l.93-.36c-.48-1.24-.95-2.49-1.43-3.74l-.93.36Zm2.86,7.48c.48,1.25.95,2.5,1.43,3.74l.94-.36c-.48-1.24-.95-2.49-1.43-3.74l-.93.36Zm-5.72-14.95c.48,1.25.96,2.49,1.43,3.74l.93-.36c-.48-1.24-.95-2.49-1.43-3.74l-.93.36Zm14.4,37.35c.49,1.24.99,2.48,1.49,3.72l.93-.37c-.5-1.23-.99-2.47-1.48-3.72l-.93.37Zm2.99,7.43c.51,1.24,1.01,2.48,1.52,3.71l.92-.38c-.51-1.23-1.01-2.46-1.52-3.7l-.93.38Zm-5.92-14.89c.49,1.25.97,2.49,1.46,3.73l.93-.37c-.49-1.24-.97-2.48-1.46-3.73l-.93.36Zm-2.89-7.47c.48,1.25.96,2.5,1.44,3.74l.93-.36c-.48-1.24-.96-2.48-1.44-3.73l-.93.36Zm-26.69-66.89c.54,1.22,1.08,2.44,1.61,3.66l.92-.4c-.53-1.23-1.07-2.45-1.61-3.67l-.91.41Zm12.31,29.57c.49,1.24.98,2.48,1.46,3.72l.93-.37c-.49-1.24-.97-2.48-1.46-3.72l-.93.37Zm-15.61-36.85c.56,1.21,1.11,2.42,1.66,3.64l.91-.41c-.55-1.22-1.11-2.43-1.67-3.64l-.91.42Zm-3.42-7.23c.58,1.2,1.15,2.4,1.72,3.61l.9-.43c-.57-1.21-1.15-2.41-1.73-3.61l-.9.43Zm5.99,10.45h0s0,0,0,0h0Zm10.06,26.19c.5,1.24,1,2.48,1.49,3.72l.93-.37c-.5-1.24-.99-2.48-1.5-3.72l-.93.38Zm-5.22-15.19l-.92.39c.52,1.22,1.05,2.45,1.56,3.68l.92-.39h0c-.52-1.23-1.04-2.46-1.56-3.69Zm2.19,7.76c.51,1.24,1.02,2.47,1.53,3.71l.93-.38c-.51-1.24-1.02-2.48-1.53-3.72l-.92.38Z"/>
      <circle class="cls-1" cx="133" cy="496.95" r="18"/>
      <circle class="cls-1" cx="570.67" cy="465.48" r="18"/>
      <circle class="cls-2" cx="262.67" cy="251.48" r="18"/>
      <circle class="cls-2" cx="224.67" cy="841.48" r="8"/>
      <circle class="cls-2" cx="148.67" cy="193.48" r="8"/>
      <circle class="cls-2" cx="1170.5" cy="329.32" r="14"/>
      <circle class="cls-2" cx="1385" cy="805.82" r="14"/>
      <circle class="cls-1" cx="1121.67" cy="168.48" r="15"/>
      <circle class="cls-1" cx="75" cy="581.95" r="6"/>
      <circle class="cls-1" cx="627.5" cy="516.32" r="6"/>
      <circle class="cls-1" cx="1053" cy="674.95" r="6"/>
      <circle class="cls-1" cx="1360" cy="631.95" r="6"/>
    </g>
  </g>
</svg>